  0
SECTION
  2
HEADER
  9
$ACADVER
  1
AC1012
  9
$DWGCODEPAGE
  3
dos932
  9
$INSBASE
 10
0.0
 20
0.0
 30
0.0
  9
$EXTMIN
 10
-13.88549660784838
 20
-16.40319680609172
 30
-0.0015258207003583
  9
$EXTMAX
 10
87.47100927572592
 20
50.54473970148797
 30
0.0000000349246037
  9
$LIMMIN
 10
-250.0
 20
-250.0
  9
$LIMMAX
 10
250.0
 20
250.0
  9
$ORTHOMODE
 70
     0
  9
$REGENMODE
 70
     1
  9
$FILLMODE
 70
     1
  9
$QTEXTMODE
 70
     0
  9
$MIRRTEXT
 70
     0
  9
$DRAGMODE
 70
     2
  9
$LTSCALE
 40
1.0
  9
$OSMODE
 70
   703
  9
$ATTMODE
 70
     1
  9
$TEXTSIZE
 40
1.0
  9
$TRACEWID
 40
0.05
  9
$TEXTSTYLE
  7
STANDARD
  9
$CLAYER
  8
0
  9
$CELTYPE
  6
BYLAYER
  9
$CECOLOR
 62
     4
  9
$CELTSCALE
 40
1.0
  9
$DELOBJ
 70
     1
  9
$DISPSILH
 70
     0
  9
$DIMSCALE
 40
1.0
  9
$DIMASZ
 40
1.5
  9
$DIMEXO
 40
0.0
  9
$DIMDLI
 40
0.38
  9
$DIMRND
 40
0.0
  9
$DIMDLE
 40
0.0
  9
$DIMEXE
 40
1.0
  9
$DIMTP
 40
0.1
  9
$DIMTM
 40
0.1
  9
$DIMTXT
 40
1.1
  9
$DIMCEN
 40
0.09
  9
$DIMTSZ
 40
0.0
  9
$DIMTOL
 70
     0
  9
$DIMLIM
 70
     0
  9
$DIMTIH
 70
     0
  9
$DIMTOH
 70
     0
  9
$DIMSE1
 70
     0
  9
$DIMSE2
 70
     0
  9
$DIMTAD
 70
     1
  9
$DIMZIN
 70
     8
  9
$DIMBLK
  1

  9
$DIMASO
 70
     1
  9
$DIMSHO
 70
     1
  9
$DIMPOST
  1

  9
$DIMAPOST
  1

  9
$DIMALT
 70
     0
  9
$DIMALTD
 70
     2
  9
$DIMALTF
 40
25.4
  9
$DIMLFAC
 40
1.0
  9
$DIMTOFL
 70
     1
  9
$DIMTVP
 40
0.0
  9
$DIMTIX
 70
     0
  9
$DIMSOXD
 70
     0
  9
$DIMSAH
 70
     0
  9
$DIMBLK1
  1

  9
$DIMBLK2
  1

  9
$DIMSTYLE
  2
STANDARD
  9
$DIMCLRD
 70
     4
  9
$DIMCLRE
 70
     4
  9
$DIMCLRT
 70
     4
  9
$DIMTFAC
 40
1.0
  9
$DIMGAP
 40
0.09
  9
$DIMJUST
 70
     0
  9
$DIMSD1
 70
     0
  9
$DIMSD2
 70
     0
  9
$DIMTOLJ
 70
     1
  9
$DIMTZIN
 70
     8
  9
$DIMALTZ
 70
     8
  9
$DIMALTTZ
 70
     8
  9
$DIMFIT
 70
     5
  9
$DIMUPT
 70
     0
  9
$DIMUNIT
 70
     2
  9
$DIMDEC
 70
     2
  9
$DIMTDEC
 70
     2
  9
$DIMALTU
 70
     2
  9
$DIMALTTD
 70
     2
  9
$DIMTXSTY
  7
STANDARD
  9
$DIMAUNIT
 70
     0
  9
$LUNITS
 70
     2
  9
$LUPREC
 70
     2
  9
$SKETCHINC
 40
0.1
  9
$FILLETRAD
 40
0.0
  9
$AUNITS
 70
     0
  9
$AUPREC
 70
     2
  9
$MENU
  1
acad
  9
$ELEVATION
 40
0.0
  9
$PELEVATION
 40
0.0
  9
$THICKNESS
 40
0.0
  9
$LIMCHECK
 70
     0
  9
$BLIPMODE
 70
     0
  9
$CHAMFERA
 40
0.0
  9
$CHAMFERB
 40
0.0
  9
$CHAMFERC
 40
0.0
  9
$CHAMFERD
 40
0.0
  9
$SKPOLY
 70
     0
  9
$TDCREATE
 40
2450352.414922685
  9
$TDUPDATE
 40
2455613.645020972
  9
$TDINDWG
 40
0.0118887037
  9
$TDUSRTIMER
 40
0.0118887037
  9
$USRTIMER
 70
     1
  9
$ANGBASE
 50
0.0
  9
$ANGDIR
 70
     0
  9
$PDMODE
 70
     0
  9
$PDSIZE
 40
0.0
  9
$PLINEWID
 40
0.0
  9
$COORDS
 70
     2
  9
$SPLFRAME
 70
     0
  9
$SPLINETYPE
 70
     6
  9
$SPLINESEGS
 70
     8
  9
$ATTDIA
 70
     0
  9
$ATTREQ
 70
     1
  9
$HANDLING
 70
 22529
  9
$HANDSEED
  5
1CD
  9
$SURFTAB1
 70
     6
  9
$SURFTAB2
 70
     6
  9
$SURFTYPE
 70
     6
  9
$SURFU
 70
     6
  9
$SURFV
 70
     6
  9
$UCSNAME
  2

  9
$UCSORG
 10
0.0
 20
0.0
 30
0.0
  9
$UCSXDIR
 10
1.0
 20
0.0
 30
0.0
  9
$UCSYDIR
 10
0.0
 20
1.0
 30
0.0
  9
$PUCSNAME
  2

  9
$PUCSORG
 10
0.0
 20
0.0
 30
0.0
  9
$PUCSXDIR
 10
1.0
 20
0.0
 30
0.0
  9
$PUCSYDIR
 10
0.0
 20
1.0
 30
0.0
  9
$USERI1
 70
     0
  9
$USERI2
 70
     0
  9
$USERI3
 70
     0
  9
$USERI4
 70
     0
  9
$USERI5
 70
     0
  9
$USERR1
 40
0.0
  9
$USERR2
 40
0.0
  9
$USERR3
 40
0.0
  9
$USERR4
 40
0.0
  9
$USERR5
 40
0.0
  9
$WORLDVIEW
 70
     1
  9
$SHADEDGE
 70
     3
  9
$SHADEDIF
 70
    70
  9
$TILEMODE
 70
     1
  9
$MAXACTVP
 70
    16
  9
$PINSBASE
 10
0.0
 20
0.0
 30
0.0
  9
$PLIMCHECK
 70
     0
  9
$PEXTMIN
 10
1.000000000000000E+20
 20
1.000000000000000E+20
 30
1.000000000000000E+20
  9
$PEXTMAX
 10
-1.000000000000000E+20
 20
-1.000000000000000E+20
 30
-1.000000000000000E+20
  9
$PLIMMIN
 10
0.0
 20
0.0
  9
$PLIMMAX
 10
12.0
 20
9.0
  9
$UNITMODE
 70
     0
  9
$VISRETAIN
 70
     0
  9
$PLINEGEN
 70
     0
  9
$PSLTSCALE
 70
     1
  9
$TREEDEPTH
 70
  3020
  9
$PICKSTYLE
 70
     0
  9
$CMLSTYLE
  2
STANDARD
  9
$CMLJUST
 70
     0
  9
$CMLSCALE
 40
1.0
  9
$SAVEIMAGES
 70
     1
  0
ENDSEC
  0
SECTION
  2
CLASSES
  0
CLASS
  1
ACDBDICTIONARYWDFLT
  2
AcDbDictionaryWithDefault
  3
AutoCAD 2000
 90
    32768
280
     0
281
     0
  0
CLASS
  1
ACDBPLACEHOLDER
  2
AcDbPlaceHolder
  3
AutoCAD 2000
 90
    32768
280
     0
281
     0
  0
CLASS
  1
LAYOUT
  2
AcDbLayout
  3
AutoCAD 2000
 90
    32768
280
     0
281
     0
  0
CLASS
  1
DICTIONARYVAR
  2
AcDbDictionaryVar
  3
AutoCAD 2000
 90
    32768
280
     0
281
     0
  0
CLASS
  1
LONG_TRANSACTION
  2
AcDbLongTransaction
  3
AutoCAD 2000
 90
    32768
280
     0
281
     0
  0
CLASS
  1
LWPOLYLINE
  2
AcDbPolyline
  3
AutoCAD 2000
 90
    32768
280
     0
281
     1
  0
CLASS
  1
HATCH
  2
AcDbHatch
  3
AutoCAD 2000
 90
    32768
280
     0
281
     1
  0
CLASS
  1
XRECORD
  2
AcDbXrecord
  3
AutoCAD 2000
 90
    32768
280
     0
281
     0
  0
CLASS
  1
LONG_TRANSACTION
  2
AcDbLongTransaction
  3
AutoCAD 2000
 90
    32768
280
     0
281
     0
  0
CLASS
  1
LWPOLYLINE
  2
AcDbPolyline
  3
AutoCAD 2000
 90
    32768
280
     0
281
     1
  0
CLASS
  1
HATCH
  2
AcDbHatch
  3
AutoCAD 2000
 90
    32768
280
     0
281
     1
  0
CLASS
  1
XRECORD
  2
AcDbXrecord
  3
AutoCAD 2000
 90
    32768
280
     0
281
     0
  0
ENDSEC
  0
SECTION
  2
TABLES
  0
TABLE
  2
VPORT
  5
8
330
0
100
AcDbSymbolTable
 70
     2
  0
VPORT
  5
1CA
330
8
100
AcDbSymbolTableRecord
100
AcDbViewportTableRecord
  2
*ACTIVE
 70
     0
 10
0.0
 20
0.0
 11
1.0
 21
1.0
 12
36.79275633393876
 22
17.07077144769812
 13
0.0
 23
0.0
 14
1.0
 24
1.0
 15
0.0
 25
0.0
 16
0.0
 26
0.0
 36
1.0
 17
0.0
 27
0.0
 37
0.0
 40
67.67039625406437
 41
1.758558558558558
 42
50.0
 43
0.0
 44
0.0
 50
0.0
 51
0.0
 71
     0
 72
   100
 73
     1
 74
     1
 75
     0
 76
     0
 77
     0
 78
     0
  0
ENDTAB
  0
TABLE
  2
LTYPE
  5
5
330
0
100
AcDbSymbolTable
 70
     2
  0
LTYPE
  5
13
330
5
100
AcDbSymbolTableRecord
100
AcDbLinetypeTableRecord
  2
BYBLOCK
 70
     0
  3

 72
    65
 73
     0
 40
0.0
  0
LTYPE
  5
14
330
5
100
AcDbSymbolTableRecord
100
AcDbLinetypeTableRecord
  2
BYLAYER
 70
     0
  3

 72
    65
 73
     0
 40
0.0
  0
LTYPE
  5
15
330
5
100
AcDbSymbolTableRecord
100
AcDbLinetypeTableRecord
  2
CONTINUOUS
 70
     0
  3
Solid line
 72
    65
 73
     0
 40
0.0
  0
LTYPE
  5
2A
330
5
100
AcDbSymbolTableRecord
100
AcDbLinetypeTableRecord
  2
CENTER
 70
     0
  3
____ _ ____ _ ____ _ ____ _ ____ _ ____ _ ____
 72
    65
 73
     4
 40
17.5
 49
13.0
 74
     0
 49
-1.5
 74
     0
 49
1.5
 74
     0
 49
-1.5
 74
     0
  0
ENDTAB
  0
TABLE
  2
LAYER
  5
2
330
0
100
AcDbSymbolTable
 70
     2
  0
LAYER
  5
10
330
2
100
AcDbSymbolTableRecord
100
AcDbLayerTableRecord
  2
0
 70
     0
 62
     7
  6
CONTINUOUS
  0
LAYER
  5
2D
330
2
100
AcDbSymbolTableRecord
100
AcDbLayerTableRecord
  2
DEFPOINTS
 70
     0
 62
     7
  6
CONTINUOUS
  0
ENDTAB
  0
TABLE
  2
STYLE
  5
3
330
0
100
AcDbSymbolTable
 70
     1
  0
STYLE
  5
11
330
3
100
AcDbSymbolTableRecord
100
AcDbTextStyleTableRecord
  2
STANDARD
 70
     0
 40
0.0
 41
1.0
 50
0.0
 71
     0
 42
1.0
  3
txt
  4

  0
ENDTAB
  0
TABLE
  2
VIEW
  5
6
330
0
100
AcDbSymbolTable
 70
     0
  0
ENDTAB
  0
TABLE
  2
UCS
  5
7
330
0
100
AcDbSymbolTable
 70
     0
  0
ENDTAB
  0
TABLE
  2
APPID
  5
9
330
0
100
AcDbSymbolTable
 70
     1
  0
APPID
  5
12
330
9
100
AcDbSymbolTableRecord
100
AcDbRegAppTableRecord
  2
ACAD
 70
     0
  0
ENDTAB
  0
TABLE
  2
DIMSTYLE
  5
A
330
0
100
AcDbSymbolTable
 70
     1
  0
DIMSTYLE
105
18C
330
A
100
AcDbSymbolTableRecord
100
AcDbDimStyleTableRecord
  2
STANDARD
 70
     0
  3

  4

  5

  6

  7

 40
1.0
 41
0.18
 42
0.0625
 43
0.38
 44
0.18
 45
0.0
 46
0.0
 47
0.0
 48
0.0
140
0.18
141
0.09
142
0.0
143
25.4
144
1.0
145
0.0
146
1.0
147
0.09
 71
     0
 72
     0
 73
     1
 74
     1
 75
     0
 76
     0
 77
     0
 78
     0
170
     0
171
     2
172
     0
173
     0
174
     0
175
     0
176
     0
177
     0
178
     0
270
     2
271
     4
272
     4
273
     2
274
     2
340
11
275
     0
280
     0
281
     0
282
     0
283
     1
284
     0
285
     0
286
     0
287
     3
288
     0
  0
ENDTAB
  0
TABLE
  2
BLOCK_RECORD
  5
1
330
0
100
AcDbSymbolTable
 70
     8
  0
BLOCK_RECORD
  5
1E
102
{ACAD_XDICTIONARY
360
18F
102
}
330
1
100
AcDbSymbolTableRecord
100
AcDbBlockTableRecord
  2
*MODEL_SPACE
  0
BLOCK_RECORD
  5
1A
102
{ACAD_XDICTIONARY
360
191
102
}
330
1
100
AcDbSymbolTableRecord
100
AcDbBlockTableRecord
  2
*PAPER_SPACE
  0
BLOCK_RECORD
  5
22
330
1
100
AcDbSymbolTableRecord
100
AcDbBlockTableRecord
  2
*D0
  0
BLOCK_RECORD
  5
23
330
1
100
AcDbSymbolTableRecord
100
AcDbBlockTableRecord
  2
*D1
  0
BLOCK_RECORD
  5
24
330
1
100
AcDbSymbolTableRecord
100
AcDbBlockTableRecord
  2
*D2
  0
BLOCK_RECORD
  5
25
330
1
100
AcDbSymbolTableRecord
100
AcDbBlockTableRecord
  2
*D3
  0
BLOCK_RECORD
  5
26
330
1
100
AcDbSymbolTableRecord
100
AcDbBlockTableRecord
  2
*D4
  0
BLOCK_RECORD
  5
27
330
1
100
AcDbSymbolTableRecord
100
AcDbBlockTableRecord
  2
*D5
  0
BLOCK_RECORD
  5
28
330
1
100
AcDbSymbolTableRecord
100
AcDbBlockTableRecord
  2
*D6
  0
BLOCK_RECORD
  5
29
330
1
100
AcDbSymbolTableRecord
100
AcDbBlockTableRecord
  2
*D7
  0
ENDTAB
  0
ENDSEC
  0
SECTION
  2
BLOCKS
  0
BLOCK
  5
30
330
1E
100
AcDbEntity
  8
0
 62
     4
100
AcDbBlockBegin
  2
*MODEL_SPACE
 70
     0
 10
0.0
 20
0.0
 30
0.0
  3
*MODEL_SPACE
  1

  0
ENDBLK
  5
31
330
1E
100
AcDbEntity
  8
0
 62
     4
100
AcDbBlockEnd
  0
BLOCK
  5
2E
330
1A
100
AcDbEntity
 67
     1
  8
0
 62
     4
100
AcDbBlockBegin
  2
*PAPER_SPACE
 70
     0
 10
0.0
 20
0.0
 30
0.0
  3
*PAPER_SPACE
  1

  0
ENDBLK
  5
2F
330
1A
100
AcDbEntity
 67
     1
  8
0
 62
     4
100
AcDbBlockEnd
  0
BLOCK
  5
32
330
22
100
AcDbEntity
  8
0
100
AcDbBlockBegin
  2
*D0
 70
     1
 10
0.0
 20
0.0
 30
0.0
  3
*D0
  1

  0
LINE
  5
33
330
22
100
AcDbEntity
  8
0
  6
BYBLOCK
 62
     4
100
AcDbLine
 10
-6.0
 20
40.99996899999999
 30
0.0
 11
-6.0
 21
49.8694323489719
 31
0.0
  0
LINE
  5
34
330
22
100
AcDbEntity
  8
0
  6
BYBLOCK
 62
     4
100
AcDbLine
 10
5.999999
 20
40.99998499999999
 30
0.0
 11
5.999999
 21
49.8694323489719
 31
0.0
  0
LINE
  5
35
330
22
100
AcDbEntity
  8
0
  6
BYBLOCK
 62
     4
100
AcDbLine
 10
-4.5
 20
48.86943234897191
 30
0.0
 11
4.499999
 21
48.86943234897191
 31
0.0
  0
SOLID
  5
36
330
22
100
AcDbEntity
  8
0
  6
BYBLOCK
 62
     4
100
AcDbTrace
 10
-4.5
 20
49.1194323489719
 30
0.0
 11
-4.5
 21
48.6194323489719
 31
0.0
 12
-6.0
 22
48.86943234897191
 32
0.0
 13
-6.0
 23
48.86943234897191
 33
0.0
  0
SOLID
  5
37
330
22
100
AcDbEntity
  8
0
  6
BYBLOCK
 62
     4
100
AcDbTrace
 10
4.499999
 20
49.1194323489719
 30
0.0
 11
4.499999
 21
48.6194323489719
 31
0.0
 12
5.999999
 22
48.86943234897191
 32
0.0
 13
5.999999
 23
48.86943234897191
 33
0.0
  0
TEXT
  5
38
330
22
100
AcDbEntity
  8
0
  6
BYBLOCK
 62
     4
100
AcDbText
 10
-2.4750005
 20
49.41943234897191
 30
0.0
 40
1.1
  1
12%%P0.2
 72
     1
 11
-0.0000005000000001
 21
49.96943234897191
 31
0.0
100
AcDbText
 73
     2
  0
POINT
  5
3A
330
22
100
AcDbEntity
  8
DEFPOINTS
  6
BYBLOCK
 62
     0
100
AcDbPoint
 10
-6.0
 20
40.99996899999999
 30
0.0
  0
POINT
  5
3B
330
22
100
AcDbEntity
  8
DEFPOINTS
  6
BYBLOCK
 62
     0
100
AcDbPoint
 10
5.999999
 20
40.99998499999999
 30
0.0
  0
POINT
  5
3C
330
22
100
AcDbEntity
  8
DEFPOINTS
  6
BYBLOCK
 62
     0
100
AcDbPoint
 10
5.999999
 20
48.86943234897191
 30
0.0
  0
ENDBLK
  5
3D
330
22
100
AcDbEntity
  8
0
100
AcDbBlockEnd
  0
BLOCK
  5
3E
330
23
100
AcDbEntity
  8
0
100
AcDbBlockBegin
  2
*D1
 70
     1
 10
0.0
 20
0.0
 30
0.0
  3
*D1
  1

  0
LINE
  5
3F
330
23
100
AcDbEntity
  8
0
  6
BYBLOCK
 62
     4
100
AcDbLine
 10
-5.0
 20
42.0
 30
0.0
 11
-13.23011922941167
 21
42.0
 31
0.0
  0
LINE
  5
40
330
23
100
AcDbEntity
  8
0
  6
BYBLOCK
 62
     4
100
AcDbLine
 10
-4.9999714
 20
30.0
 30
0.0
 11
-13.23011922941167
 21
30.0
 31
0.0
  0
LINE
  5
41
330
23
100
AcDbEntity
  8
0
  6
BYBLOCK
 62
     4
100
AcDbLine
 10
-12.23011922941167
 20
40.49999999999999
 30
0.0
 11
-12.23011922941167
 21
31.5
 31
0.0
  0
SOLID
  5
42
330
23
100
AcDbEntity
  8
0
  6
BYBLOCK
 62
     4
100
AcDbTrace
 10
-12.48011922941167
 20
40.49999999999999
 30
0.0
 11
-11.98011922941167
 21
40.49999999999999
 31
0.0
 12
-12.23011922941167
 22
42.0
 32
0.0
 13
-12.23011922941167
 23
42.0
 33
0.0
  0
SOLID
  5
43
330
23
100
AcDbEntity
  8
0
  6
BYBLOCK
 62
     4
100
AcDbTrace
 10
-12.48011922941167
 20
31.5
 30
0.0
 11
-11.98011922941167
 21
31.5
 31
0.0
 12
-12.23011922941167
 22
30.0
 32
0.0
 13
-12.23011922941167
 23
30.0
 33
0.0
  0
TEXT
  5
44
330
23
100
AcDbEntity
  8
0
  6
BYBLOCK
 62
     4
100
AcDbText
 10
-12.78011922941167
 20
33.525
 30
0.0
 40
1.1
  1
12%%P0.2
 50
90.0
 72
     1
 11
-13.33011922941167
 21
36.0
 31
0.0
100
AcDbText
 73
     2
  0
POINT
  5
45
330
23
100
AcDbEntity
  8
DEFPOINTS
  6
BYBLOCK
 62
     0
100
AcDbPoint
 10
-5.0
 20
42.0
 30
0.0
  0
POINT
  5
46
330
23
100
AcDbEntity
  8
DEFPOINTS
  6
BYBLOCK
 62
     0
100
AcDbPoint
 10
-4.9999714
 20
30.0
 30
0.0
  0
POINT
  5
47
330
23
100
AcDbEntity
  8
DEFPOINTS
  6
BYBLOCK
 62
     0
100
AcDbPoint
 10
-12.23011922941167
 20
30.0
 30
0.0
  0
ENDBLK
  5
48
330
23
100
AcDbEntity
  8
0
100
AcDbBlockEnd
  0
BLOCK
  5
49
330
24
100
AcDbEntity
  8
0
100
AcDbBlockBegin
  2
*D2
 70
     1
 10
0.0
 20
0.0
 30
0.0
  3
*D2
  1

  0
LINE
  5
4A
330
24
100
AcDbEntity
  8
0
  6
BYBLOCK
 62
     4
100
AcDbLine
 10
-5.5
 20
0.0
 30
0.0
 11
-11.920821
 21
0.0
 31
0.0
  0
LINE
  5
4B
330
24
100
AcDbEntity
  8
0
  6
BYBLOCK
 62
     4
100
AcDbLine
 10
-1.599995599999999
 20
7.300208999999995
 30
0.0
 11
-11.920821
 21
7.300208999999995
 31
0.0
  0
LINE
  5
4C
330
24
100
AcDbEntity
  8
0
  6
BYBLOCK
 62
     4
100
AcDbLine
 10
-10.920821
 20
-1.5
 30
0.0
 11
-10.920821
 21
-3.0
 31
0.0
  0
LINE
  5
4D
330
24
100
AcDbEntity
  8
0
  6
BYBLOCK
 62
     4
100
AcDbLine
 10
-10.920821
 20
8.800208999999995
 30
0.0
 11
-10.920821
 21
10.30020899999999
 31
0.0
  0
LINE
  5
4E
330
24
100
AcDbEntity
  8
0
  6
BYBLOCK
 62
     4
100
AcDbLine
 10
-10.920821
 20
10.30020899999999
 30
0.0
 11
-10.920821
 21
16.07354233333333
 31
0.0
  0
SOLID
  5
4F
330
24
100
AcDbEntity
  8
0
  6
BYBLOCK
 62
     4
100
AcDbTrace
 10
-11.17082099999999
 20
-1.5
 30
0.0
 11
-10.670821
 21
-1.5
 31
0.0
 12
-10.920821
 22
0.0
 32
0.0
 13
-10.920821
 23
0.0
 33
0.0
  0
SOLID
  5
50
330
24
100
AcDbEntity
  8
0
  6
BYBLOCK
 62
     4
100
AcDbTrace
 10
-11.17082099999999
 20
8.800208999999995
 30
0.0
 11
-10.670821
 21
8.800208999999995
 31
0.0
 12
-10.920821
 22
7.300208999999995
 32
0.0
 13
-10.920821
 23
7.300208999999995
 33
0.0
  0
LINE
  5
51
330
24
100
AcDbEntity
  8
0
  6
BYBLOCK
 62
     4
100
AcDbLine
 10
-10.920821
 20
0.0
 30
0.0
 11
-10.920821
 21
7.300208999999995
 31
0.0
  0
TEXT
  5
52
330
24
100
AcDbEntity
  8
0
  6
BYBLOCK
 62
     4
100
AcDbText
 10
-11.47082099999999
 20
10.39020899999999
 30
0.0
 40
1.1
  1
7.3%%P0.2
 50
90.0
 72
     1
 11
-12.020821
 21
13.23187566666666
 31
0.0
100
AcDbText
 73
     2
  0
POINT
  5
53
330
24
100
AcDbEntity
  8
DEFPOINTS
  6
BYBLOCK
 62
     0
100
AcDbPoint
 10
-5.5
 20
0.0
 30
0.0
  0
POINT
  5
54
330
24
100
AcDbEntity
  8
DEFPOINTS
  6
BYBLOCK
 62
     0
100
AcDbPoint
 10
-1.599995599999999
 20
7.300208999999995
 30
0.0
  0
POINT
  5
55
330
24
100
AcDbEntity
  8
DEFPOINTS
  6
BYBLOCK
 62
     0
100
AcDbPoint
 10
-10.920821
 20
7.300208999999995
 30
0.0
  0
ENDBLK
  5
56
330
24
100
AcDbEntity
  8
0
100
AcDbBlockEnd
  0
BLOCK
  5
57
330
25
100
AcDbEntity
  8
0
100
AcDbBlockBegin
  2
*D3
 70
     1
 10
0.0
 20
0.0
 30
0.0
  3
*D3
  1

  0
LINE
  5
58
330
25
100
AcDbEntity
  8
0
  6
BYBLOCK
 62
     4
100
AcDbLine
 10
-6.899979599999999
 20
-1.799987799999996
 30
0.0
 11
-6.899979599999999
 21
-16.39423040074048
 31
0.0
  0
LINE
  5
59
330
25
100
AcDbEntity
  8
0
  6
BYBLOCK
 62
     4
100
AcDbLine
 10
6.899979599999999
 20
-1.799987799999996
 30
0.0
 11
6.899979599999999
 21
-16.39423040074048
 31
0.0
  0
LINE
  5
5A
330
25
100
AcDbEntity
  8
0
  6
BYBLOCK
 62
     4
100
AcDbLine
 10
-5.399979599999999
 20
-15.39423040074048
 30
0.0
 11
5.399979599999999
 21
-15.39423040074048
 31
0.0
  0
SOLID
  5
5B
330
25
100
AcDbEntity
  8
0
  6
BYBLOCK
 62
     4
100
AcDbTrace
 10
-5.399979599999999
 20
-15.14423040074048
 30
0.0
 11
-5.399979599999999
 21
-15.64423040074048
 31
0.0
 12
-6.899979599999999
 22
-15.39423040074048
 32
0.0
 13
-6.899979599999999
 23
-15.39423040074048
 33
0.0
  0
SOLID
  5
5C
330
25
100
AcDbEntity
  8
0
  6
BYBLOCK
 62
     4
100
AcDbTrace
 10
5.399979599999999
 20
-15.14423040074048
 30
0.0
 11
5.399979599999999
 21
-15.64423040074048
 31
0.0
 12
6.899979599999999
 22
-15.39423040074048
 32
0.0
 13
6.899979599999999
 23
-15.39423040074048
 33
0.0
  0
TEXT
  5
5D
330
25
100
AcDbEntity
  8
0
  6
BYBLOCK
 62
     4
100
AcDbText
 10
-3.208333333333333
 20
-14.84423040074048
 30
0.0
 40
1.1
  1
13.8%%P0.5
 72
     1
 11
0.0
 21
-14.29423040074048
 31
0.0
100
AcDbText
 73
     2
  0
POINT
  5
5E
330
25
100
AcDbEntity
  8
DEFPOINTS
  6
BYBLOCK
 62
     0
100
AcDbPoint
 10
-6.899979599999999
 20
-1.799987799999996
 30
0.0
  0
POINT
  5
5F
330
25
100
AcDbEntity
  8
DEFPOINTS
  6
BYBLOCK
 62
     0
100
AcDbPoint
 10
6.899979599999999
 20
-1.799987799999996
 30
0.0
  0
POINT
  5
60
330
25
100
AcDbEntity
  8
DEFPOINTS
  6
BYBLOCK
 62
     0
100
AcDbPoint
 10
6.899979599999999
 20
-15.39423040074048
 30
0.0
  0
ENDBLK
  5
61
330
25
100
AcDbEntity
  8
0
100
AcDbBlockEnd
  0
BLOCK
  5
62
330
26
100
AcDbEntity
  8
0
100
AcDbBlockBegin
  2
*D4
 70
     1
 10
0.0
 20
0.0
 30
0.0
  3
*D4
  1

  0
LINE
  5
63
330
26
100
AcDbEntity
  8
0
  6
BYBLOCK
 62
     4
100
AcDbLine
 10
-5.5
 20
0.0
 30
0.0
 11
-11.920821
 21
0.0
 31
0.0
  0
LINE
  5
64
330
26
100
AcDbEntity
  8
0
  6
BYBLOCK
 62
     4
100
AcDbLine
 10
-6.399978599999998
 20
-3.5
 30
0.0
 11
-11.920821
 21
-3.5
 31
0.0
  0
LINE
  5
65
330
26
100
AcDbEntity
  8
0
  6
BYBLOCK
 62
     4
100
AcDbLine
 10
-10.920821
 20
1.5
 30
0.0
 11
-10.920821
 21
3.0
 31
0.0
  0
LINE
  5
66
330
26
100
AcDbEntity
  8
0
  6
BYBLOCK
 62
     4
100
AcDbLine
 10
-10.920821
 20
-5.0
 30
0.0
 11
-10.920821
 21
-6.5
 31
0.0
  0
LINE
  5
67
330
26
100
AcDbEntity
  8
0
  6
BYBLOCK
 62
     4
100
AcDbLine
 10
-10.920821
 20
-6.5
 30
0.0
 11
-10.920821
 21
-8.789999999999999
 31
0.0
  0
SOLID
  5
68
330
26
100
AcDbEntity
  8
0
  6
BYBLOCK
 62
     4
100
AcDbTrace
 10
-11.17082099999999
 20
1.5
 30
0.0
 11
-10.670821
 21
1.5
 31
0.0
 12
-10.920821
 22
0.0
 32
0.0
 13
-10.920821
 23
0.0
 33
0.0
  0
SOLID
  5
69
330
26
100
AcDbEntity
  8
0
  6
BYBLOCK
 62
     4
100
AcDbTrace
 10
-11.17082099999999
 20
-5.0
 30
0.0
 11
-10.670821
 21
-5.0
 31
0.0
 12
-10.920821
 22
-3.5
 32
0.0
 13
-10.920821
 23
-3.5
 33
0.0
  0
LINE
  5
6A
330
26
100
AcDbEntity
  8
0
  6
BYBLOCK
 62
     4
100
AcDbLine
 10
-10.920821
 20
0.0
 30
0.0
 11
-10.920821
 21
-3.5
 31
0.0
  0
TEXT
  5
6B
330
26
100
AcDbEntity
  8
0
  6
BYBLOCK
 62
     4
100
AcDbText
 10
-11.47082099999999
 20
-8.789999999999999
 30
0.0
 40
1.1
  1
3.5
 50
90.0
 72
     1
 11
-12.020821
 21
-7.689999999999999
 31
0.0
100
AcDbText
 73
     2
  0
POINT
  5
6C
330
26
100
AcDbEntity
  8
DEFPOINTS
  6
BYBLOCK
 62
     0
100
AcDbPoint
 10
-5.5
 20
0.0
 30
0.0
  0
POINT
  5
6D
330
26
100
AcDbEntity
  8
DEFPOINTS
  6
BYBLOCK
 62
     0
100
AcDbPoint
 10
-6.399978599999998
 20
-3.5
 30
0.0
  0
POINT
  5
6E
330
26
100
AcDbEntity
  8
DEFPOINTS
  6
BYBLOCK
 62
     0
100
AcDbPoint
 10
-10.920821
 20
-3.5
 30
0.0
  0
ENDBLK
  5
6F
330
26
100
AcDbEntity
  8
0
100
AcDbBlockEnd
  0
BLOCK
  5
70
330
27
100
AcDbEntity
  8
0
100
AcDbBlockBegin
  2
*D5
 70
     1
 10
0.0
 20
0.0
 30
0.0
  3
*D5
  1

  0
LINE
  5
71
330
27
100
AcDbEntity
  8
0
  6
BYBLOCK
 62
     4
100
AcDbLine
 10
118.5768188799791
 20
10.57354535354656
 30
0.0
 11
118.5768188799791
 21
2.101859065588527
 31
0.0
  0
LINE
  5
72
330
27
100
AcDbEntity
  8
0
  6
BYBLOCK
 62
     4
100
AcDbLine
 10
106.0768188799791
 20
10.57354535354656
 30
0.0
 11
106.0768188799791
 21
2.101859065588527
 31
0.0
  0
LINE
  5
73
330
27
100
AcDbEntity
  8
0
  6
BYBLOCK
 62
     4
100
AcDbLine
 10
117.0768188799791
 20
3.101859065588527
 30
0.0
 11
107.5768188799791
 21
3.101859065588527
 31
0.0
  0
SOLID
  5
74
330
27
100
AcDbEntity
  8
0
  6
BYBLOCK
 62
     4
100
AcDbTrace
 10
117.0768188799791
 20
3.351859065588527
 30
0.0
 11
117.0768188799791
 21
2.851859065588527
 31
0.0
 12
118.5768188799791
 22
3.101859065588527
 32
0.0
 13
118.5768188799791
 23
3.101859065588527
 33
0.0
  0
SOLID
  5
75
330
27
100
AcDbEntity
  8
0
  6
BYBLOCK
 62
     4
100
AcDbTrace
 10
107.5768188799791
 20
3.351859065588527
 30
0.0
 11
107.5768188799791
 21
2.851859065588527
 31
0.0
 12
106.0768188799791
 22
3.101859065588527
 32
0.0
 13
106.0768188799791
 23
3.101859065588527
 33
0.0
  0
TEXT
  5
76
330
27
100
AcDbEntity
  8
0
  6
BYBLOCK
 62
     4
100
AcDbText
 10
109.3018188799791
 20
3.651859065588527
 30
0.0
 40
1.1
  1
12.5%%P0.1
 72
     1
 11
112.3268188799791
 21
4.201859065588527
 31
0.0
100
AcDbText
 73
     2
  0
POINT
  5
77
330
27
100
AcDbEntity
  8
DEFPOINTS
  6
BYBLOCK
 62
     0
100
AcDbPoint
 10
118.5768188799791
 20
10.57354535354656
 30
0.0
  0
POINT
  5
78
330
27
100
AcDbEntity
  8
DEFPOINTS
  6
BYBLOCK
 62
     0
100
AcDbPoint
 10
106.0768188799791
 20
10.57354535354656
 30
0.0
  0
POINT
  5
79
330
27
100
AcDbEntity
  8
DEFPOINTS
  6
BYBLOCK
 62
     0
100
AcDbPoint
 10
106.0768188799791
 20
3.101859065588527
 30
0.0
  0
ENDBLK
  5
7A
330
27
100
AcDbEntity
  8
0
100
AcDbBlockEnd
  0
BLOCK
  5
7B
330
28
100
AcDbEntity
  8
0
100
AcDbBlockBegin
  2
*D6
 70
     1
 10
0.0
 20
0.0
 30
0.0
  3
*D6
  1

  0
LINE
  5
7C
330
28
100
AcDbEntity
  8
0
  6
BYBLOCK
 62
     4
100
AcDbLine
 10
114.7268128799791
 20
10.17354375354656
 30
0.0
 11
131.5904576517413
 21
10.17354375354656
 31
0.0
  0
LINE
  5
7D
330
28
100
AcDbEntity
  8
0
  6
BYBLOCK
 62
     4
100
AcDbLine
 10
114.7268128799791
 20
19.17354375354656
 30
0.0
 11
131.5904576517413
 21
19.17354375354656
 31
0.0
  0
LINE
  5
7E
330
28
100
AcDbEntity
  8
0
  6
BYBLOCK
 62
     4
100
AcDbLine
 10
130.5904576517413
 20
11.67354375354656
 30
0.0
 11
130.5904576517413
 21
17.67354375354656
 31
0.0
  0
SOLID
  5
7F
330
28
100
AcDbEntity
  8
0
  6
BYBLOCK
 62
     4
100
AcDbTrace
 10
130.3404576517413
 20
11.67354375354656
 30
0.0
 11
130.8404576517413
 21
11.67354375354656
 31
0.0
 12
130.5904576517413
 22
10.17354375354656
 32
0.0
 13
130.5904576517413
 23
10.17354375354656
 33
0.0
  0
SOLID
  5
80
330
28
100
AcDbEntity
  8
0
  6
BYBLOCK
 62
     4
100
AcDbTrace
 10
130.3404576517413
 20
17.67354375354656
 30
0.0
 11
130.8404576517413
 21
17.67354375354656
 31
0.0
 12
130.5904576517413
 22
19.17354375354656
 32
0.0
 13
130.5904576517413
 23
19.17354375354656
 33
0.0
  0
TEXT
  5
81
330
28
100
AcDbEntity
  8
0
  6
BYBLOCK
 62
     4
100
AcDbText
 10
130.0404576517414
 20
12.74854375354656
 30
0.0
 40
1.1
  1
9%%P0.1
 50
90.0
 72
     1
 11
129.4904576517413
 21
14.67354375354656
 31
0.0
100
AcDbText
 73
     2
  0
POINT
  5
82
330
28
100
AcDbEntity
  8
DEFPOINTS
  6
BYBLOCK
 62
     0
100
AcDbPoint
 10
114.7268128799791
 20
10.17354375354656
 30
0.0
  0
POINT
  5
83
330
28
100
AcDbEntity
  8
DEFPOINTS
  6
BYBLOCK
 62
     0
100
AcDbPoint
 10
114.7268128799791
 20
19.17354375354656
 30
0.0
  0
POINT
  5
84
330
28
100
AcDbEntity
  8
DEFPOINTS
  6
BYBLOCK
 62
     0
100
AcDbPoint
 10
130.5904576517413
 20
19.17354375354656
 30
0.0
  0
ENDBLK
  5
85
330
28
100
AcDbEntity
  8
0
100
AcDbBlockEnd
  0
BLOCK
  5
86
330
29
100
AcDbEntity
  8
0
100
AcDbBlockBegin
  2
*D7
 70
     1
 10
0.0
 20
0.0
 30
0.0
  3
*D7
  1

  0
LINE
  5
87
330
29
100
AcDbEntity
  8
0
  6
BYBLOCK
 62
     4
100
AcDbLine
 10
120.1768098799791
 20
12.17354377354657
 30
0.0
 11
126.3279920803082
 21
12.17354377354657
 31
0.0
  0
LINE
  5
88
330
29
100
AcDbEntity
  8
0
  6
BYBLOCK
 62
     4
100
AcDbLine
 10
120.1768098799791
 20
17.17354375354656
 30
0.0
 11
126.3279920803082
 21
17.17354375354656
 31
0.0
  0
LINE
  5
89
330
29
100
AcDbEntity
  8
0
  6
BYBLOCK
 62
     4
100
AcDbLine
 10
125.3279920803082
 20
10.67354377354656
 30
0.0
 11
125.3279920803082
 21
9.173543773546569
 31
0.0
  0
LINE
  5
8A
330
29
100
AcDbEntity
  8
0
  6
BYBLOCK
 62
     4
100
AcDbLine
 10
125.3279920803082
 20
18.67354375354656
 30
0.0
 11
125.3279920803082
 21
20.17354375354656
 31
0.0
  0
LINE
  5
8B
330
29
100
AcDbEntity
  8
0
  6
BYBLOCK
 62
     4
100
AcDbLine
 10
125.3279920803082
 20
20.17354375354656
 30
0.0
 11
125.3279920803082
 21
24.11354375354656
 31
0.0
  0
SOLID
  5
8C
330
29
100
AcDbEntity
  8
0
  6
BYBLOCK
 62
     4
100
AcDbTrace
 10
125.0779920803082
 20
10.67354377354656
 30
0.0
 11
125.5779920803082
 21
10.67354377354656
 31
0.0
 12
125.3279920803082
 22
12.17354377354657
 32
0.0
 13
125.3279920803082
 23
12.17354377354657
 33
0.0
  0
SOLID
  5
8D
330
29
100
AcDbEntity
  8
0
  6
BYBLOCK
 62
     4
100
AcDbTrace
 10
125.0779920803082
 20
18.67354375354656
 30
0.0
 11
125.5779920803082
 21
18.67354375354656
 31
0.0
 12
125.3279920803082
 22
17.17354375354656
 32
0.0
 13
125.3279920803082
 23
17.17354375354656
 33
0.0
  0
LINE
  5
8E
330
29
100
AcDbEntity
  8
0
  6
BYBLOCK
 62
     4
100
AcDbLine
 10
125.3279920803082
 20
12.17354377354657
 30
0.0
 11
125.3279920803082
 21
17.17354375354656
 31
0.0
  0
TEXT
  5
8F
330
29
100
AcDbEntity
  8
0
  6
BYBLOCK
 62
     4
100
AcDbText
 10
124.7779920803082
 20
20.26354375354656
 30
0.0
 40
1.1
  1
5%%P0.1
 50
90.0
 72
     1
 11
124.2279920803083
 21
22.18854375354657
 31
0.0
100
AcDbText
 73
     2
  0
POINT
  5
90
330
29
100
AcDbEntity
  8
DEFPOINTS
  6
BYBLOCK
 62
     0
100
AcDbPoint
 10
120.1768098799791
 20
12.17354377354657
 30
0.0
  0
POINT
  5
91
330
29
100
AcDbEntity
  8
DEFPOINTS
  6
BYBLOCK
 62
     0
100
AcDbPoint
 10
120.1768098799791
 20
17.17354375354656
 30
0.0
  0
POINT
  5
92
330
29
100
AcDbEntity
  8
DEFPOINTS
  6
BYBLOCK
 62
     0
100
AcDbPoint
 10
125.3279920803082
 20
17.17354375354656
 30
0.0
  0
ENDBLK
  5
93
330
29
100
AcDbEntity
  8
0
100
AcDbBlockEnd
  0
ENDSEC
  0
SECTION
  2
ENTITIES
  0
DIMENSION
  5
94
330
1E
100
AcDbEntity
  8
0
  6
CONTINUOUS
 62
     4
100
AcDbDimension
  2
*D4
 10
-10.920821
 20
-3.5
 30
0.0
 11
-12.020821
 21
-7.689999999999999
 31
0.0
100
AcDbAlignedDimension
 13
-5.5
 23
0.0
 33
0.0
 14
-6.399978599999998
 24
-3.5
 34
0.0
 50
90.0
100
AcDbRotatedDimension
  0
DIMENSION
  5
95
330
1E
100
AcDbEntity
  8
0
  6
CONTINUOUS
 62
     4
100
AcDbDimension
  2
*D3
 10
6.899979599999999
 20
-15.39423040074048
 30
0.0
 11
0.0
 21
-14.29423040074048
 31
0.0
  1
13.8%%P0.5
100
AcDbAlignedDimension
 13
-6.899979599999999
 23
-1.799987799999996
 33
0.0
 14
6.899979599999999
 24
-1.799987799999996
 34
0.0
100
AcDbRotatedDimension
  0
DIMENSION
  5
96
330
1E
100
AcDbEntity
  8
0
  6
CONTINUOUS
 62
     4
100
AcDbDimension
  2
*D1
 10
-12.23011922941167
 20
30.0
 30
0.0
 11
-13.33011922941167
 21
36.0
 31
0.0
  1
12%%P0.2
100
AcDbAlignedDimension
 13
-5.0
 23
42.0
 33
0.0
 14
-4.9999714
 24
30.0
 34
0.0
 50
90.0
100
AcDbRotatedDimension
  0
DIMENSION
  5
97
330
1E
100
AcDbEntity
  8
0
  6
CONTINUOUS
 62
     4
100
AcDbDimension
  2
*D0
 10
5.999999
 20
48.86943234897191
 30
0.0
 11
-0.0000005000000001
 21
49.96943234897191
 31
0.0
  1
12%%P0.2
100
AcDbAlignedDimension
 13
-6.0
 23
40.99996899999999
 33
0.0
 14
5.999999
 24
40.99998499999999
 34
0.0
100
AcDbRotatedDimension
  0
DIMENSION
  5
98
330
1E
100
AcDbEntity
  8
0
  6
CONTINUOUS
 62
     4
100
AcDbDimension
  2
*D5
 10
61.93208300000001
 20
-8.771532887958038
 30
0.0
 11
68.18208300000001
 21
-7.671532887958036
 31
0.0
 12
-44.14473587997917
 22
-11.87339195354656
 32
0.0
  1
12.5%%P0.1
100
AcDbAlignedDimension
 13
74.43208300000001
 23
-1.299846600000002
 33
0.0
 14
61.93208300000001
 24
-1.299846600000002
 34
0.0
100
AcDbRotatedDimension
  0
DIMENSION
  5
99
330
1E
100
AcDbEntity
  8
0
  6
CONTINUOUS
 62
     4
100
AcDbDimension
  2
*D6
 10
86.44572177176222
 20
7.300151800000001
 30
0.0
 11
85.34572177176222
 21
2.800151800000001
 31
0.0
 12
-44.14473587997917
 22
-11.87339195354656
 32
0.0
  1
9%%P0.1
100
AcDbAlignedDimension
 13
70.582077
 23
-1.699848199999998
 33
0.0
 14
70.582077
 24
7.300151800000001
 34
0.0
 50
90.0
100
AcDbRotatedDimension
  0
DIMENSION
  5
9A
330
1E
100
AcDbEntity
  8
0
100
AcDbDimension
  2
*D2
 10
-10.920821
 20
7.300208999999995
 30
0.0
 11
-12.020821
 21
13.23187566666666
 31
0.0
  1
7.3%%P0.2
100
AcDbAlignedDimension
 13
-5.5
 23
0.0
 33
0.0
 14
-1.599995599999999
 24
7.300208999999995
 34
0.0
 50
90.0
100
AcDbRotatedDimension
  0
DIMENSION
  5
9B
330
1E
100
AcDbEntity
  8
0
100
AcDbDimension
  2
*D7
 10
81.18325620032912
 20
5.300151800000001
 30
0.0
 11
80.08325620032913
 21
10.3151518
 31
0.0
 12
-44.14473587997917
 22
-11.87339195354656
 32
0.0
  1
5%%P0.1
100
AcDbAlignedDimension
 13
76.03207400000001
 23
0.3001518200000035
 33
0.0
 14
76.03207400000001
 24
5.300151800000001
 34
0.0
 50
90.0
100
AcDbRotatedDimension
  0
LINE
  5
9C
330
1E
100
AcDbEntity
  8
0
  6
CONTINUOUS
 62
     7
100
AcDbLine
 10
6.000000000000001
 20
3.5
 30
0.0
 11
6.000000000000001
 21
0.2999992400000053
 31
0.0
  0
LINE
  5
9D
330
1E
100
AcDbEntity
  8
0
  6
CONTINUOUS
 62
     7
100
AcDbLine
 10
2.0
 20
0.0
 30
0.0
 11
5.5
 21
0.0
 31
0.0
  0
LINE
  5
9E
330
1E
100
AcDbEntity
  8
0
  6
CONTINUOUS
 62
     7
100
AcDbLine
 10
5.0
 20
3.5
 30
0.0
 11
5.0
 21
0.0
 31
0.0
  0
LINE
  5
9F
330
1E
100
AcDbEntity
  8
0
  6
CONTINUOUS
 62
     7
100
AcDbLine
 10
6.276443000000002
 20
0.8165219400000012
 30
0.0
 11
6.891553899999999
 21
-1.729395600000003
 31
0.0
  0
LINE
  5
A0
330
1E
100
AcDbEntity
  8
0
  6
CONTINUOUS
 62
     7
100
AcDbLine
 10
5.9999485
 20
0.7001267699999972
 30
0.0
 11
6.599945499999998
 21
-1.799875999999997
 31
0.0
  0
LINE
  5
A1
330
1E
100
AcDbEntity
  8
0
  6
CONTINUOUS
 62
     7
100
AcDbLine
 10
0.8000030500000008
 20
0.3000030500000008
 30
0.0
 11
0.8000030500000008
 21
-1.199996900000002
 31
0.0
  0
LINE
  5
A2
330
1E
100
AcDbEntity
  8
0
  6
CONTINUOUS
 62
     7
100
AcDbLine
 10
-0.4999847400000004
 20
-1.5
 30
0.0
 11
0.4999488000000003
 21
-1.5
 31
0.0
  0
LINE
  5
A3
330
1E
100
AcDbEntity
  8
0
  6
CONTINUOUS
 62
     7
100
AcDbLine
 10
0.8000083599999996
 20
-1.199940600000005
 30
0.0
 11
0.4999970200000004
 21
-1.499948700000004
 31
0.0
  0
LINE
  5
A4
330
1E
100
AcDbEntity
  8
0
  6
CONTINUOUS
 62
     7
100
AcDbLine
 10
-0.7999845099999999
 20
-1.199944700000003
 30
0.0
 11
0.8000008499999999
 21
-1.199938500000001
 31
0.0
  0
LINE
  5
A5
330
1E
100
AcDbEntity
  8
0
  6
CONTINUOUS
 62
     7
100
AcDbLine
 10
6.099980400000001
 20
-3.5
 30
0.0
 11
6.399978599999998
 21
-3.5
 31
0.0
  0
LINE
  5
A6
330
1E
100
AcDbEntity
  8
0
  6
CONTINUOUS
 62
     7
100
AcDbLine
 10
6.399978599999998
 20
-3.5
 30
0.0
 11
6.399978599999998
 21
-2.699996900000002
 31
0.0
  0
LINE
  5
A7
330
1E
100
AcDbEntity
  8
0
  6
CONTINUOUS
 62
     7
100
AcDbLine
 10
6.855685199999998
 20
-1.956779499999996
 30
0.0
 11
6.399952399999998
 21
-2.699946400000001
 31
0.0
  0
LINE
  5
A8
330
1E
100
AcDbEntity
  8
0
  6
CONTINUOUS
 62
     7
100
AcDbLine
 10
6.099980400000001
 20
-3.5
 30
0.0
 11
6.099980400000001
 21
-2.699981699999995
 31
0.0
  0
LINE
  5
A9
330
1E
100
AcDbEntity
  8
0
  6
CONTINUOUS
 62
     7
100
AcDbLine
 10
6.599930299999998
 20
-1.799949299999994
 30
0.0
 11
6.144196500000001
 21
-2.543117800000004
 31
0.0
  0
LINE
  5
AA
330
1E
100
AcDbEntity
  8
0
  6
CONTINUOUS
 62
     7
100
AcDbLine
 10
-3.249983499999999
 20
4.300212900000005
 30
0.0
 11
3.249983099999999
 21
4.300186199999998
 31
0.0
  0
LINE
  5
AB
330
1E
100
AcDbEntity
  8
0
  6
CONTINUOUS
 62
     7
100
AcDbLine
 10
4.7999954
 20
3.5
 30
0.0
 11
4.7999954
 21
3.668853799999993
 31
0.0
  0
LINE
  5
AC
330
1E
100
AcDbEntity
  8
0
  6
CONTINUOUS
 62
     7
100
AcDbLine
 10
3.1999969
 20
3.5
 30
0.0
 11
3.1999969
 21
3.668853799999993
 31
0.0
  0
LINE
  5
AD
330
1E
100
AcDbEntity
  8
0
  6
CONTINUOUS
 62
     7
100
AcDbLine
 10
3.5499954
 20
4.000213599999995
 30
0.0
 11
3.5499954
 21
3.830902100000002
 31
0.0
  0
LINE
  5
AE
330
1E
100
AcDbEntity
  8
0
  6
CONTINUOUS
 62
     7
100
AcDbLine
 10
-6.0
 20
0.2999992400000053
 30
0.0
 11
-6.0
 21
3.5
 31
0.0
  0
LINE
  5
AF
330
1E
100
AcDbEntity
  8
0
  6
CONTINUOUS
 62
     7
100
AcDbLine
 10
-6.0
 20
3.5
 30
0.0
 11
-0.8500003799999991
 21
3.5
 31
0.0
  0
LINE
  5
B0
330
1E
100
AcDbEntity
  8
0
  6
CONTINUOUS
 62
     7
100
AcDbLine
 10
-5.5
 20
0.0
 30
0.0
 11
-2.0
 21
0.0
 31
0.0
  0
LINE
  5
B1
330
1E
100
AcDbEntity
  8
0
  6
CONTINUOUS
 62
     7
100
AcDbLine
 10
-5.0
 20
0.0
 30
0.0
 11
-5.0
 21
3.5
 31
0.0
  0
LINE
  5
B2
330
1E
100
AcDbEntity
  8
0
  6
CONTINUOUS
 62
     7
100
AcDbLine
 10
-6.8915529
 20
-1.729391899999995
 30
0.0
 11
-6.276442499999999
 21
0.816523790000005
 31
0.0
  0
LINE
  5
B3
330
1E
100
AcDbEntity
  8
0
  6
CONTINUOUS
 62
     7
100
AcDbLine
 10
-6.599944099999999
 20
-1.799871300000006
 30
0.0
 11
-5.9999475
 21
0.7001304599999969
 31
0.0
  0
LINE
  5
B4
330
1E
100
AcDbEntity
  8
0
  6
CONTINUOUS
 62
     7
100
AcDbLine
 10
-0.8000030500000008
 20
-1.199996900000002
 30
0.0
 11
-0.8000030500000008
 21
0.3000030500000008
 31
0.0
  0
LINE
  5
B5
330
1E
100
AcDbEntity
  8
0
  6
CONTINUOUS
 62
     7
100
AcDbLine
 10
-0.4999970200000004
 20
-1.499948700000004
 30
0.0
 11
-0.8000083599999996
 21
-1.199940600000005
 31
0.0
  0
LINE
  5
B6
330
1E
100
AcDbEntity
  8
0
  6
CONTINUOUS
 62
     7
100
AcDbLine
 10
-6.399978599999998
 20
-3.5
 30
0.0
 11
-6.0999804
 21
-3.5
 31
0.0
  0
LINE
  5
B7
330
1E
100
AcDbEntity
  8
0
  6
CONTINUOUS
 62
     7
100
AcDbLine
 10
-6.399978599999998
 20
-2.699996900000002
 30
0.0
 11
-6.399978599999998
 21
-3.5
 31
0.0
  0
LINE
  5
B8
330
1E
100
AcDbEntity
  8
0
  6
CONTINUOUS
 62
     7
100
AcDbLine
 10
-6.399934799999999
 20
-2.699942399999997
 30
0.0
 11
-6.855667099999999
 21
-1.956776300000001
 31
0.0
  0
LINE
  5
B9
330
1E
100
AcDbEntity
  8
0
  6
CONTINUOUS
 62
     7
100
AcDbLine
 10
-6.0999804
 20
-2.699981699999995
 30
0.0
 11
-6.0999804
 21
-3.5
 31
0.0
  0
LINE
  5
BA
330
1E
100
AcDbEntity
  8
0
  6
CONTINUOUS
 62
     7
100
AcDbLine
 10
-6.144184599999999
 20
-2.543113000000005
 30
0.0
 11
-6.5999179
 21
-1.799945199999996
 31
0.0
  0
LINE
  5
BB
330
1E
100
AcDbEntity
  8
0
  6
CONTINUOUS
 62
     7
100
AcDbLine
 10
-4.7999954
 20
3.668853799999993
 30
0.0
 11
-4.7999954
 21
3.5
 31
0.0
  0
LINE
  5
BC
330
1E
100
AcDbEntity
  8
0
  6
CONTINUOUS
 62
     7
100
AcDbLine
 10
-3.1999969
 20
3.668853799999993
 30
0.0
 11
-3.1999969
 21
3.5
 31
0.0
  0
LINE
  5
BD
330
1E
100
AcDbEntity
  8
0
  6
CONTINUOUS
 62
     7
100
AcDbLine
 10
-2.0
 20
0.3000030500000008
 30
0.0
 11
2.0
 21
0.3000030500000008
 31
0.0
  0
LINE
  5
BE
330
1E
100
AcDbEntity
  8
0
  6
CONTINUOUS
 62
     7
100
AcDbLine
 10
-3.5499954
 20
3.830902100000002
 30
0.0
 11
-3.5499954
 21
4.000213599999995
 31
0.0
  0
LINE
  5
BF
330
1E
100
AcDbEntity
  8
0
  6
CENTER
 62
     2
100
AcDbLine
 10
-6.25
 20
-1.0
 30
0.0
 11
-6.25
 21
-5.5
 31
0.0
  0
LINE
  5
C0
330
1E
100
AcDbEntity
  8
0
  6
CENTER
 62
     2
100
AcDbLine
 10
6.250000000000001
 20
-1.0
 30
0.0
 11
6.250000000000001
 21
-5.5
 31
0.0
  0
LINE
  5
C1
330
1E
100
AcDbEntity
  8
0
  6
CONTINUOUS
 62
     7
100
AcDbLine
 10
0.8499937099999996
 20
3.5
 30
0.0
 11
0.8499937099999996
 21
3.099998499999998
 31
0.0
  0
LINE
  5
C2
330
1E
100
AcDbEntity
  8
0
  6
CONTINUOUS
 62
     7
100
AcDbLine
 10
-0.8500003799999991
 20
3.5
 30
0.0
 11
-0.8500003799999991
 21
3.099998499999998
 31
0.0
  0
LINE
  5
C3
330
1E
100
AcDbEntity
  8
0
  6
CONTINUOUS
 62
     7
100
AcDbLine
 10
6.399978599999998
 20
-3.416727100000002
 30
0.0
 11
6.099980400000001
 21
-3.416727100000002
 31
0.0
  0
LINE
  5
C4
330
1E
100
AcDbEntity
  8
0
  6
CONTINUOUS
 62
     7
100
AcDbLine
 10
-6.0999804
 20
-3.416727100000002
 30
0.0
 11
-6.399978599999998
 21
-3.416727100000002
 31
0.0
  0
LINE
  5
C5
330
1E
100
AcDbEntity
  8
0
  6
CONTINUOUS
 62
     7
100
AcDbLine
 10
2.0
 20
0.3000030500000008
 30
0.0
 11
2.0
 21
0.0
 31
0.0
  0
LINE
  5
C6
330
1E
100
AcDbEntity
  8
0
  6
CONTINUOUS
 62
     7
100
AcDbLine
 10
-2.0
 20
0.3000030500000008
 30
0.0
 11
-2.0
 21
0.0
 31
0.0
  0
LINE
  5
C7
330
1E
100
AcDbEntity
  8
0
  6
CONTINUOUS
 62
     7
100
AcDbLine
 10
5.5
 20
0.2999992400000053
 30
0.0
 11
5.5
 21
0.0
 31
0.0
  0
LINE
  5
C8
330
1E
100
AcDbEntity
  8
0
  6
CONTINUOUS
 62
     7
100
AcDbLine
 10
5.5
 20
0.2999992400000053
 30
0.0
 11
6.000000000000001
 21
0.2999992400000053
 31
0.0
  0
LINE
  5
C9
330
1E
100
AcDbEntity
  8
0
  6
CONTINUOUS
 62
     7
100
AcDbLine
 10
-5.5
 20
0.0
 30
0.0
 11
-5.5
 21
0.2999992400000053
 31
0.0
  0
LINE
  5
CA
330
1E
100
AcDbEntity
  8
0
  6
CONTINUOUS
 62
     7
100
AcDbLine
 10
-6.0
 20
0.2999992400000053
 30
0.0
 11
-5.5
 21
0.2999992400000053
 31
0.0
  0
LINE
  5
CB
330
1E
100
AcDbEntity
  8
0
  6
CONTINUOUS
 62
     7
100
AcDbLine
 10
-0.8500003799999991
 20
3.099998499999998
 30
0.0
 11
0.8499937099999996
 21
3.099998499999998
 31
0.0
  0
LINE
  5
CC
330
1E
100
AcDbEntity
  8
0
  6
CONTINUOUS
 62
     7
100
AcDbLine
 10
-0.8500003799999991
 20
3.399995799999999
 30
0.0
 11
0.8499937099999996
 21
3.399995799999999
 31
0.0
  0
LINE
  5
CD
330
1E
100
AcDbEntity
  8
0
  6
CONTINUOUS
 62
     7
100
AcDbLine
 10
0.8499937099999996
 20
3.5
 30
0.0
 11
6.000000000000001
 21
3.5
 31
0.0
  0
LINE
  5
CE
330
1E
100
AcDbEntity
  8
0
  6
CENTER
 62
     2
100
AcDbLine
 10
0.0
 20
9.300208999999995
 30
0.0
 11
0.0
 21
-3.5
 31
0.0
  0
LINE
  5
CF
330
1E
100
AcDbEntity
  8
0
  6
CONTINUOUS
 62
     7
100
AcDbLine
 10
1.899999599999999
 20
7.000198400000002
 30
0.0
 11
1.899999599999999
 21
5.500198400000002
 31
0.0
  0
LINE
  5
D0
330
1E
100
AcDbEntity
  8
0
  6
CONTINUOUS
 62
     7
100
AcDbLine
 10
-1.899999599999999
 20
7.000213599999995
 30
0.0
 11
-1.899999599999999
 21
5.500213599999995
 31
0.0
  0
LINE
  5
D1
330
1E
100
AcDbEntity
  8
0
  6
CONTINUOUS
 62
     7
100
AcDbLine
 10
-1.599995599999999
 20
7.300208999999995
 30
0.0
 11
1.599999399999999
 21
7.300208999999995
 31
0.0
  0
LINE
  5
D2
330
1E
100
AcDbEntity
  8
0
  6
CONTINUOUS
 62
     7
100
AcDbLine
 10
-1.8999977
 20
5.500206000000005
 30
0.0
 11
1.8999968
 21
5.500206000000005
 31
0.0
  0
LINE
  5
D3
330
1E
100
AcDbEntity
  8
0
  6
CONTINUOUS
 62
     7
100
AcDbLine
 10
-1.5
 20
5.500213599999995
 30
0.0
 11
-1.5
 21
4.300216700000007
 31
0.0
  0
LINE
  5
D4
330
1E
100
AcDbEntity
  8
0
  6
CONTINUOUS
 62
     7
100
AcDbLine
 10
1.5
 20
5.500198400000002
 30
0.0
 11
1.5
 21
4.300201400000005
 31
0.0
  0
LINE
  5
D5
330
1E
100
AcDbEntity
  8
0
  6
CONTINUOUS
 62
     7
100
AcDbLine
 10
28.00009199999999
 20
0.0000038145662984
 30
0.0
 11
28.00009199999999
 21
3.499923699999996
 31
0.0
  0
LINE
  5
D6
330
1E
100
AcDbEntity
  8
0
  6
CONTINUOUS
 62
     7
100
AcDbLine
 10
28.50009199999999
 20
0.2998033800000002
 30
0.0
 11
31.000031
 21
0.2998033800000002
 31
0.0
  0
LINE
  5
D7
330
1E
100
AcDbEntity
  8
0
  6
CONTINUOUS
 62
     7
100
AcDbLine
 10
28.00009199999999
 20
-0.0001993152000068
 30
0.0
 11
30.500076
 21
-0.0001993152000068
 31
0.0
  0
LINE
  5
D8
330
1E
100
AcDbEntity
  8
0
  6
CONTINUOUS
 62
     7
100
AcDbLine
 10
31.999969
 20
0.9999378899999982
 30
0.0
 11
31.999969
 21
-3.289902699999998
 31
0.0
  0
LINE
  5
D9
330
1E
100
AcDbEntity
  8
0
  6
CONTINUOUS
 62
     7
100
AcDbLine
 10
30.999969
 20
0.9999347300000067
 30
0.0
 11
30.999969
 21
-3.289904599999999
 31
0.0
  0
LINE
  5
DA
330
1E
100
AcDbEntity
  8
0
  6
CONTINUOUS
 62
     7
100
AcDbLine
 10
32.00003099999999
 20
0.9997233699999981
 30
0.0
 11
30.999969
 21
0.9997233699999981
 31
0.0
  0
LINE
  5
DB
330
1E
100
AcDbEntity
  8
0
  6
CONTINUOUS
 62
     7
100
AcDbLine
 10
31.90896599999999
 20
-1.873486499999998
 30
0.0
 11
31.075531
 21
-1.873486499999998
 31
0.0
  0
LINE
  5
DC
330
1E
100
AcDbEntity
  8
0
  6
CENTER
 62
     2
100
AcDbLine
 10
31.5
 20
1.999937099999996
 30
0.0
 11
31.5
 21
-4.500010500000001
 31
0.0
  0
LINE
  5
DD
330
1E
100
AcDbEntity
  8
0
  6
CONTINUOUS
 62
     7
100
AcDbLine
 10
29.00006099999999
 20
0.2999884500000007
 30
0.0
 11
29.00006099999999
 21
3.499954200000004
 31
0.0
  0
LINE
  5
DE
330
1E
100
AcDbEntity
  8
0
  6
CONTINUOUS
 62
     7
100
AcDbLine
 10
29.00004599999999
 20
-1.500165899999998
 30
0.0
 11
30.000046
 21
-1.500165899999998
 31
0.0
  0
LINE
  5
DF
330
1E
100
AcDbEntity
  8
0
  6
CONTINUOUS
 62
     7
100
AcDbLine
 10
28.69999699999999
 20
0.0000076292926963
 30
0.0
 11
28.69999699999999
 21
-1.199959800000002
 31
0.0
  0
LINE
  5
E0
330
1E
100
AcDbEntity
  8
0
  6
CONTINUOUS
 62
     7
100
AcDbLine
 10
30.299957
 20
0.0000038145954022
 30
0.0
 11
30.299957
 21
-1.199964500000007
 31
0.0
  0
LINE
  5
E1
330
1E
100
AcDbEntity
  8
0
  6
CONTINUOUS
 62
     7
100
AcDbLine
 10
28.69999299999999
 20
-1.199965000000005
 30
0.0
 11
29.00000399999999
 21
-1.499985300000005
 31
0.0
  0
LINE
  5
E2
330
1E
100
AcDbEntity
  8
0
  6
CONTINUOUS
 62
     7
100
AcDbLine
 10
30.29994999999999
 20
-1.199938399999993
 30
0.0
 11
29.999958
 21
-1.499934999999993
 31
0.0
  0
LINE
  5
E3
330
1E
100
AcDbEntity
  8
0
  6
CONTINUOUS
 62
     7
100
AcDbLine
 10
30.50004599999999
 20
0.0000114439610002
 30
0.0
 11
30.50004599999999
 21
0.3000142000000068
 31
0.0
  0
LINE
  5
E4
330
1E
100
AcDbEntity
  8
0
  6
CONTINUOUS
 62
     7
100
AcDbLine
 10
32.000015
 20
-2.7002363
 30
0.0
 11
31.00001499999999
 21
-2.7002363
 31
0.0
  0
LINE
  5
E5
330
1E
100
AcDbEntity
  8
0
  6
CONTINUOUS
 62
     7
100
AcDbLine
 10
30.29997299999999
 20
-1.199599300000002
 30
0.0
 11
28.69999699999999
 21
-1.199599300000002
 31
0.0
  0
LINE
  5
E6
330
1E
100
AcDbEntity
  8
0
  6
CONTINUOUS
 62
     7
100
AcDbLine
 10
39.99983199999999
 20
3.499978999999996
 30
0.0
 11
39.99983199999999
 21
0.0000371931089944
 31
0.0
  0
LINE
  5
E7
330
1E
100
AcDbEntity
  8
0
  6
CONTINUOUS
 62
     7
100
AcDbLine
 10
28.000076
 20
3.499747299999995
 30
0.0
 11
39.999817
 21
3.499747299999995
 31
0.0
  0
LINE
  5
E8
330
1E
100
AcDbEntity
  8
0
  6
CONTINUOUS
 62
     7
100
AcDbLine
 10
36.999893
 20
0.2998186300000043
 30
0.0
 11
39.499832
 21
0.2998186300000043
 31
0.0
  0
LINE
  5
E9
330
1E
100
AcDbEntity
  8
0
  6
CONTINUOUS
 62
     7
100
AcDbLine
 10
37.499878
 20
-0.0001840574300047
 30
0.0
 11
39.999878
 21
-0.0001840574300047
 31
0.0
  0
LINE
  5
EA
330
1E
100
AcDbEntity
  8
0
  6
CONTINUOUS
 62
     7
100
AcDbLine
 10
35.99986299999999
 20
-3.2899065
 30
0.0
 11
35.99986299999999
 21
0.9999692399999986
 31
0.0
  0
LINE
  5
EB
330
1E
100
AcDbEntity
  8
0
  6
CONTINUOUS
 62
     7
100
AcDbLine
 10
36.99986299999999
 20
-3.289872200000004
 30
0.0
 11
36.99986299999999
 21
0.9999717500000002
 31
0.0
  0
LINE
  5
EC
330
1E
100
AcDbEntity
  8
0
  6
CONTINUOUS
 62
     7
100
AcDbLine
 10
36.99995399999999
 20
0.9997872099999938
 30
0.0
 11
35.99995399999999
 21
0.9997872099999938
 31
0.0
  0
LINE
  5
ED
330
1E
100
AcDbEntity
  8
0
  6
CONTINUOUS
 62
     7
100
AcDbLine
 10
36.92434699999999
 20
-1.873426399999999
 30
0.0
 11
36.090912
 21
-1.873426399999999
 31
0.0
  0
LINE
  5
EE
330
1E
100
AcDbEntity
  8
0
  6
CONTINUOUS
 62
     7
100
AcDbLine
 10
32.000015
 20
0.2998186300000043
 30
0.0
 11
35.999908
 21
0.2998186300000043
 31
0.0
  0
LINE
  5
EF
330
1E
100
AcDbEntity
  8
0
  6
CENTER
 62
     2
100
AcDbLine
 10
36.499893
 20
-4.4999952
 30
0.0
 11
36.499893
 21
1.999953300000001
 31
0.0
  0
LINE
  5
F0
330
1E
100
AcDbEntity
  8
0
  6
CONTINUOUS
 62
     7
100
AcDbLine
 10
38.99984699999999
 20
3.5
 30
0.0
 11
38.99984699999999
 21
0.3000323199999997
 31
0.0
  0
LINE
  5
F1
330
1E
100
AcDbEntity
  8
0
  6
CONTINUOUS
 62
     7
100
AcDbLine
 10
37.999924
 20
-1.500135400000004
 30
0.0
 11
38.999924
 21
-1.500135400000004
 31
0.0
  0
LINE
  5
F2
330
1E
100
AcDbEntity
  8
0
  6
CONTINUOUS
 62
     7
100
AcDbLine
 10
39.299911
 20
-1.199902499999993
 30
0.0
 11
39.299911
 21
0.0000495908900007
 31
0.0
  0
LINE
  5
F3
330
1E
100
AcDbEntity
  8
0
  6
CONTINUOUS
 62
     7
100
AcDbLine
 10
37.699921
 20
-1.199914899999996
 30
0.0
 11
37.699921
 21
0.0000686643909944
 31
0.0
  0
LINE
  5
F4
330
1E
100
AcDbEntity
  8
0
  6
CONTINUOUS
 62
     7
100
AcDbLine
 10
38.999939
 20
-1.499882200000001
 30
0.0
 11
39.29995
 21
-1.199860200000003
 31
0.0
  0
LINE
  5
F5
330
1E
100
AcDbEntity
  8
0
  6
CONTINUOUS
 62
     7
100
AcDbLine
 10
37.999924
 20
-1.499937900000006
 30
0.0
 11
37.699921
 21
-1.199930800000004
 31
0.0
  0
LINE
  5
F6
330
1E
100
AcDbEntity
  8
0
  6
CONTINUOUS
 62
     7
100
AcDbLine
 10
37.49983199999999
 20
0.3000494799999984
 30
0.0
 11
37.49983199999999
 21
0.0000467298520022
 31
0.0
  0
LINE
  5
F7
330
1E
100
AcDbEntity
  8
0
  6
CONTINUOUS
 62
     7
100
AcDbLine
 10
36.999908
 20
-2.700175299999997
 30
0.0
 11
35.999908
 21
-2.700175299999997
 31
0.0
  0
LINE
  5
F8
330
1E
100
AcDbEntity
  8
0
  6
CONTINUOUS
 62
     7
100
AcDbLine
 10
39.299942
 20
-1.199907499999994
 30
0.0
 11
37.699959
 21
-1.199925300000003
 31
0.0
  0
LINE
  5
F9
330
1E
100
AcDbEntity
  8
0
  6
CONTINUOUS
 62
     7
100
AcDbLine
 10
30.75
 20
4.300455099999993
 30
0.0
 11
37.24998499999999
 21
4.300455099999993
 31
0.0
  0
LINE
  5
FA
330
1E
100
AcDbEntity
  8
0
  6
CONTINUOUS
 62
     7
100
AcDbLine
 10
38.80007899999999
 20
3.5000067
 30
0.0
 11
38.80007899999999
 21
3.668860399999999
 31
0.0
  0
LINE
  5
FB
330
1E
100
AcDbEntity
  8
0
  6
CONTINUOUS
 62
     7
100
AcDbLine
 10
37.20008899999999
 20
3.5000067
 30
0.0
 11
37.20008899999999
 21
3.668860399999999
 31
0.0
  0
LINE
  5
FC
330
1E
100
AcDbEntity
  8
0
  6
CONTINUOUS
 62
     7
100
AcDbLine
 10
37.55007899999999
 20
4.000220299999995
 30
0.0
 11
37.55007899999999
 21
3.830908800000003
 31
0.0
  0
LINE
  5
FD
330
1E
100
AcDbEntity
  8
0
  6
CONTINUOUS
 62
     7
100
AcDbLine
 10
29.200089
 20
3.668860399999999
 30
0.0
 11
29.200089
 21
3.5000067
 31
0.0
  0
LINE
  5
FE
330
1E
100
AcDbEntity
  8
0
  6
CONTINUOUS
 62
     7
100
AcDbLine
 10
30.800079
 20
3.668860399999999
 30
0.0
 11
30.800079
 21
3.5000067
 31
0.0
  0
LINE
  5
FF
330
1E
100
AcDbEntity
  8
0
  6
CONTINUOUS
 62
     7
100
AcDbLine
 10
30.450089
 20
3.830908800000003
 30
0.0
 11
30.450089
 21
4.000220299999995
 31
0.0
  0
LINE
  5
100
330
1E
100
AcDbEntity
  8
0
  6
CENTER
 62
     2
100
AcDbLine
 10
29.49995399999999
 20
-2.499978999999996
 30
0.0
 11
29.49995399999999
 21
1.299990699999995
 31
0.0
  0
LINE
  5
101
330
1E
100
AcDbEntity
  8
0
  6
CENTER
 62
     2
100
AcDbLine
 10
38.499939
 20
-2.499953300000001
 30
0.0
 11
38.499939
 21
1.300016400000004
 31
0.0
  0
LINE
  5
102
330
1E
100
AcDbEntity
  8
0
  6
CONTINUOUS
 62
     7
100
AcDbLine
 10
28.50009199999999
 20
0.0000066756037995
 30
0.0
 11
28.50009199999999
 21
0.2999874900000066
 31
0.0
  0
LINE
  5
103
330
1E
100
AcDbEntity
  8
0
  6
CONTINUOUS
 62
     7
100
AcDbLine
 10
39.499832
 20
0.3000342200000006
 30
0.0
 11
39.499832
 21
0.0000371931089944
 31
0.0
  0
LINE
  5
104
330
1E
100
AcDbEntity
  8
0
  6
CENTER
 62
     2
100
AcDbLine
 10
34.0
 20
9.300151800000001
 30
0.0
 11
34.0
 21
-1.699980699999997
 31
0.0
  0
LINE
  5
105
330
1E
100
AcDbEntity
  8
0
  6
CONTINUOUS
 62
     7
100
AcDbLine
 10
35.89997899999999
 20
7.000159299999992
 30
0.0
 11
35.89997899999999
 21
5.500159299999992
 31
0.0
  0
LINE
  5
106
330
1E
100
AcDbEntity
  8
0
  6
CONTINUOUS
 62
     7
100
AcDbLine
 10
32.09999099999999
 20
7.000145000000003
 30
0.0
 11
32.09999099999999
 21
5.500145900000006
 31
0.0
  0
LINE
  5
107
330
1E
100
AcDbEntity
  8
0
  6
CONTINUOUS
 62
     7
100
AcDbLine
 10
32.39994799999999
 20
7.300151799999994
 30
0.0
 11
35.59993
 21
7.300151799999994
 31
0.0
  0
LINE
  5
108
330
1E
100
AcDbEntity
  8
0
  6
CONTINUOUS
 62
     7
100
AcDbLine
 10
32.09995999999999
 20
5.500148800000005
 30
0.0
 11
35.89994799999999
 21
5.500148800000005
 31
0.0
  0
LINE
  5
109
330
1E
100
AcDbEntity
  8
0
  6
CONTINUOUS
 62
     7
100
AcDbLine
 10
32.49998499999999
 20
5.500153499999996
 30
0.0
 11
32.49998499999999
 21
4.300156599999994
 31
0.0
  0
LINE
  5
10A
330
1E
100
AcDbEntity
  8
0
  6
CONTINUOUS
 62
     7
100
AcDbLine
 10
35.49998499999999
 20
5.500157400000006
 30
0.0
 11
35.49998499999999
 21
4.300160399999995
 31
0.0
  0
LINE
  5
10B
330
1E
100
AcDbEntity
  8
0
  6
CONTINUOUS
 62
     7
100
AcDbLine
 10
4.999999
 20
30.0
 30
0.0
 11
-4.9999714
 21
30.0
 31
0.0
  0
LINE
  5
10C
330
1E
100
AcDbEntity
  8
0
  6
CONTINUOUS
 62
     7
100
AcDbLine
 10
-6.0
 20
30.99998499999999
 30
0.0
 11
-6.0
 21
40.99996899999999
 31
0.0
  0
LINE
  5
10D
330
1E
100
AcDbEntity
  8
0
  6
CONTINUOUS
 62
     7
100
AcDbLine
 10
5.999999
 20
30.99998499999999
 30
0.0
 11
5.999999
 21
40.99998499999999
 31
0.0
  0
LINE
  5
10E
330
1E
100
AcDbEntity
  8
0
  6
CONTINUOUS
 62
     7
100
AcDbLine
 10
-5.099998499999999
 20
31.299988
 30
0.0
 11
-5.099998499999999
 21
31.65364099999999
 31
0.0
  0
LINE
  5
10F
330
1E
100
AcDbEntity
  8
0
  6
CONTINUOUS
 62
     7
100
AcDbLine
 10
4.699996
 20
30.89999399999999
 30
0.0
 11
0.84999365
 21
30.89999399999999
 31
0.0
  0
LINE
  5
110
330
1E
100
AcDbEntity
  8
0
  6
CONTINUOUS
 62
     7
100
AcDbLine
 10
4.699990299999999
 20
41.09999099999999
 30
0.0
 11
0.899996699999999
 21
41.09999099999999
 31
0.0
  0
LINE
  5
111
330
1E
100
AcDbEntity
  8
0
  6
CONTINUOUS
 62
     7
100
AcDbLine
 10
6.899979599999999
 20
34.0
 30
0.0
 11
5.999999
 21
34.0
 31
0.0
  0
LINE
  5
112
330
1E
100
AcDbEntity
  8
0
  6
CONTINUOUS
 62
     7
100
AcDbLine
 10
6.899979599999999
 20
33.0
 30
0.0
 11
5.999999
 21
33.0
 31
0.0
  0
LINE
  5
113
330
1E
100
AcDbEntity
  8
0
  6
CONTINUOUS
 62
     7
100
AcDbLine
 10
6.899979599999999
 20
38.0
 30
0.0
 11
5.999999
 21
38.0
 31
0.0
  0
LINE
  5
114
330
1E
100
AcDbEntity
  8
0
  6
CONTINUOUS
 62
     7
100
AcDbLine
 10
6.899979599999999
 20
39.0
 30
0.0
 11
5.999999
 21
39.0
 31
0.0
  0
LINE
  5
115
330
1E
100
AcDbEntity
  8
0
  6
CONTINUOUS
 62
     7
100
AcDbLine
 10
-6.0
 20
33.0
 30
0.0
 11
-6.899979599999999
 21
33.0
 31
0.0
  0
LINE
  5
116
330
1E
100
AcDbEntity
  8
0
  6
CONTINUOUS
 62
     7
100
AcDbLine
 10
-6.0
 20
34.0
 30
0.0
 11
-6.899979599999999
 21
34.0
 31
0.0
  0
LINE
  5
117
330
1E
100
AcDbEntity
  8
0
  6
CONTINUOUS
 62
     7
100
AcDbLine
 10
-6.0
 20
38.0
 30
0.0
 11
-6.899979599999999
 21
38.0
 31
0.0
  0
LINE
  5
118
330
1E
100
AcDbEntity
  8
0
  6
CONTINUOUS
 62
     7
100
AcDbLine
 10
-6.0
 20
39.0
 30
0.0
 11
-6.899979599999999
 21
39.0
 31
0.0
  0
LINE
  5
119
330
1E
100
AcDbEntity
  8
0
  6
CONTINUOUS
 62
     7
100
AcDbLine
 10
-5.399939499999999
 20
37.653549
 30
0.0
 11
-5.399939499999999
 21
40.346313
 31
0.0
  0
LINE
  5
11A
330
1E
100
AcDbEntity
  8
0
  6
CONTINUOUS
 62
     7
100
AcDbLine
 10
-5.999895599999999
 20
39.999882
 30
0.0
 11
-5.399904699999999
 21
40.34628699999999
 31
0.0
  0
LINE
  5
11B
330
1E
100
AcDbEntity
  8
0
  6
CONTINUOUS
 62
     7
100
AcDbLine
 10
-5.999890299999999
 20
34.00000399999999
 30
0.0
 11
-5.3998995
 21
34.346409
 31
0.0
  0
LINE
  5
11C
330
1E
100
AcDbEntity
  8
0
  6
CONTINUOUS
 62
     7
100
AcDbLine
 10
-5.399984799999999
 20
37.65352199999999
 30
0.0
 11
-5.9999104
 21
37.999889
 31
0.0
  0
LINE
  5
11D
330
1E
100
AcDbEntity
  8
0
  6
CONTINUOUS
 62
     7
100
AcDbLine
 10
-5.399903299999999
 20
31.653605
 30
0.0
 11
-5.999907499999999
 21
32.000019
 31
0.0
  0
LINE
  5
11E
330
1E
100
AcDbEntity
  8
0
  6
CONTINUOUS
 62
     7
100
AcDbLine
 10
-4.9999409
 20
41.999889
 30
0.0
 11
-5.9999275
 21
40.99989299999999
 31
0.0
  0
LINE
  5
11F
330
1E
100
AcDbEntity
  8
0
  6
CONTINUOUS
 62
     7
100
AcDbLine
 10
4.999978099999999
 20
29.999966
 30
0.0
 11
5.999964199999999
 21
30.99996
 31
0.0
  0
LINE
  5
120
330
1E
100
AcDbEntity
  8
0
  6
CONTINUOUS
 62
     7
100
AcDbLine
 10
5.999933700000001
 20
40.99992
 30
0.0
 11
4.999942800000001
 21
41.99990800000001
 31
0.0
  0
LINE
  5
121
330
1E
100
AcDbEntity
  8
0
  6
CONTINUOUS
 62
     7
100
AcDbLine
 10
-4.999994799999999
 20
29.999996
 30
0.0
 11
-5.999973799999999
 21
30.999977
 31
0.0
  0
LINE
  5
122
330
1E
100
AcDbEntity
  8
0
  6
CONTINUOUS
 62
     7
100
AcDbLine
 10
-5.399814599999999
 20
31.653625
 30
0.0
 11
-5.399814599999999
 21
34.34642
 31
0.0
  0
LINE
  5
123
330
1E
100
AcDbEntity
  8
0
  6
CONTINUOUS
 62
     7
100
AcDbLine
 10
-5.3999176
 20
31.65365599999999
 30
0.0
 11
-5.099998499999999
 21
31.65365599999999
 31
0.0
  0
LINE
  5
124
330
1E
100
AcDbEntity
  8
0
  6
CONTINUOUS
 62
     7
100
AcDbLine
 10
-5.3999224
 20
40.346344
 30
0.0
 11
-5.099998499999999
 21
40.346344
 31
0.0
  0
LINE
  5
125
330
1E
100
AcDbEntity
  8
0
  6
CONTINUOUS
 62
     7
100
AcDbLine
 10
5.099997499999998
 20
31.299988
 30
0.0
 11
5.099997499999998
 21
40.69998199999999
 31
0.0
  0
LINE
  5
126
330
1E
100
AcDbEntity
  8
0
  6
CONTINUOUS
 62
     7
100
AcDbLine
 10
-5.099998499999999
 20
34.34639
 30
0.0
 11
-5.099998499999999
 21
37.65357999999999
 31
0.0
  0
LINE
  5
127
330
1E
100
AcDbEntity
  8
0
  6
CONTINUOUS
 62
     7
100
AcDbLine
 10
-5.099998499999999
 20
40.346329
 30
0.0
 11
-5.099998499999999
 21
40.69998199999999
 31
0.0
  0
LINE
  5
128
330
1E
100
AcDbEntity
  8
0
  6
CONTINUOUS
 62
     7
100
AcDbLine
 10
-5.099998499999999
 20
37.653595
 30
0.0
 11
-5.399983399999999
 21
37.653595
 31
0.0
  0
LINE
  5
129
330
1E
100
AcDbEntity
  8
0
  6
CONTINUOUS
 62
     7
100
AcDbLine
 10
-5.099998499999999
 20
34.34640499999999
 30
0.0
 11
-5.3999176
 21
34.34640499999999
 31
0.0
  0
LINE
  5
12A
330
1E
100
AcDbEntity
  8
0
  6
CONTINUOUS
 62
     7
100
AcDbLine
 10
4.999960899999999
 20
42.0
 30
0.0
 11
-5.0
 21
42.0
 31
0.0
  0
LINE
  5
12B
330
1E
100
AcDbEntity
  8
0
  6
CONTINUOUS
 62
     7
100
AcDbLine
 10
-0.8500003799999991
 20
30.89999399999999
 30
0.0
 11
-4.699998899999999
 21
30.89999399999999
 31
0.0
  0
LINE
  5
12C
330
1E
100
AcDbEntity
  8
0
  6
CONTINUOUS
 62
     7
100
AcDbLine
 10
-0.8500003799999991
 20
30.0
 30
0.0
 11
-0.8500003799999991
 21
30.89999399999999
 31
0.0
  0
LINE
  5
12D
330
1E
100
AcDbEntity
  8
0
  6
CONTINUOUS
 62
     7
100
AcDbLine
 10
0.84999365
 20
30.0
 30
0.0
 11
0.84999365
 21
30.89999399999999
 31
0.0
  0
LINE
  5
12E
330
1E
100
AcDbEntity
  8
0
  6
CONTINUOUS
 62
     7
100
AcDbLine
 10
5.099978
 20
40.699928
 30
0.0
 11
4.699972199999999
 21
41.09993
 31
0.0
  0
LINE
  5
12F
330
1E
100
AcDbEntity
  8
0
  6
CONTINUOUS
 62
     7
100
AcDbLine
 10
-5.099969899999999
 20
40.699921
 30
0.0
 11
-4.699966899999999
 21
41.099926
 31
0.0
  0
LINE
  5
130
330
1E
100
AcDbEntity
  8
0
  6
CONTINUOUS
 62
     7
100
AcDbLine
 10
5.099995099999999
 20
31.29994999999999
 30
0.0
 11
4.700000300000001
 21
30.899961
 31
0.0
  0
LINE
  5
131
330
1E
100
AcDbEntity
  8
0
  6
CONTINUOUS
 62
     7
100
AcDbLine
 10
-4.699997399999999
 20
30.899971
 30
0.0
 11
-5.099986099999999
 21
31.29996699999999
 31
0.0
  0
LINE
  5
132
330
1E
100
AcDbEntity
  8
0
  6
CONTINUOUS
 62
     7
100
AcDbLine
 10
0.899996699999999
 20
41.09997599999999
 30
0.0
 11
0.899996699999999
 21
41.99998499999999
 31
0.0
  0
LINE
  5
133
330
1E
100
AcDbEntity
  8
0
  6
CONTINUOUS
 62
     7
100
AcDbLine
 10
-0.9000005699999995
 20
41.09999099999999
 30
0.0
 11
-0.9000005699999995
 21
42.0
 31
0.0
  0
LINE
  5
134
330
1E
100
AcDbEntity
  8
0
  6
CONTINUOUS
 62
     7
100
AcDbLine
 10
-0.9000005699999995
 20
41.09999099999999
 30
0.0
 11
-4.699998899999999
 21
41.09999099999999
 31
0.0
  0
LINE
  5
135
330
1E
100
AcDbEntity
  8
0
  6
CONTINUOUS
 62
     7
100
AcDbLine
 10
0.899996699999999
 20
41.5
 30
0.0
 11
-0.9000005699999995
 21
41.5
 31
0.0
  0
LINE
  5
136
330
1E
100
AcDbEntity
  8
0
  6
CONTINUOUS
 62
     7
100
AcDbLine
 10
-4.499976199999999
 20
40.999939
 30
0.0
 11
-2.2499847
 21
40.999939
 31
0.0
  0
LINE
  5
137
330
1E
100
AcDbEntity
  8
0
  6
CONTINUOUS
 62
     7
100
AcDbLine
 10
-4.999956599999999
 20
40.49988599999999
 30
0.0
 11
-4.4999537
 21
40.999882
 31
0.0
  0
LINE
  5
138
330
1E
100
AcDbEntity
  8
0
  6
CONTINUOUS
 62
     7
100
AcDbLine
 10
4.5000052
 20
30.99994499999999
 30
0.0
 11
4.999992799999999
 21
31.499937
 31
0.0
  0
LINE
  5
139
330
1E
100
AcDbEntity
  8
0
  6
CONTINUOUS
 62
     7
100
AcDbLine
 10
4.999958499999999
 20
40.49988599999999
 30
0.0
 11
4.499955699999999
 21
40.99988599999999
 31
0.0
  0
LINE
  5
13A
330
1E
100
AcDbEntity
  8
0
  6
CONTINUOUS
 62
     7
100
AcDbLine
 10
-4.5000029
 20
30.999949
 30
0.0
 11
-4.99999
 21
31.499939
 31
0.0
  0
LINE
  5
13B
330
1E
100
AcDbEntity
  8
0
  6
CONTINUOUS
 62
     7
100
AcDbLine
 10
2.249994299999999
 20
40.999939
 30
0.0
 11
4.4999905
 21
40.999939
 31
0.0
  0
LINE
  5
13C
330
1E
100
AcDbEntity
  8
0
  6
CONTINUOUS
 62
     7
100
AcDbLine
 10
2.1000004
 20
40.84992999999999
 30
0.0
 11
-2.099991799999999
 21
40.84992999999999
 31
0.0
  0
LINE
  5
13D
330
1E
100
AcDbEntity
  8
0
  6
CONTINUOUS
 62
     7
100
AcDbLine
 10
-2.099991299999999
 20
40.84991099999999
 30
0.0
 11
-2.2499874
 21
40.999908
 31
0.0
  0
LINE
  5
13E
330
1E
100
AcDbEntity
  8
0
  6
CONTINUOUS
 62
     7
100
AcDbLine
 10
2.2500093
 20
40.99989299999999
 30
0.0
 11
2.100013
 21
40.849895
 31
0.0
  0
LINE
  5
13F
330
1E
100
AcDbEntity
  8
0
  6
CONTINUOUS
 62
     7
100
AcDbLine
 10
-5.0
 20
31.49998499999999
 30
0.0
 11
-5.0
 21
40.49995399999999
 31
0.0
  0
LINE
  5
140
330
1E
100
AcDbEntity
  8
0
  6
CONTINUOUS
 62
     7
100
AcDbLine
 10
4.4999847
 20
30.999954
 30
0.0
 11
2.249993299999999
 21
30.999954
 31
0.0
  0
LINE
  5
141
330
1E
100
AcDbEntity
  8
0
  6
CONTINUOUS
 62
     7
100
AcDbLine
 10
-2.249997099999999
 20
30.999954
 30
0.0
 11
-4.4999914
 21
30.999954
 31
0.0
  0
LINE
  5
142
330
1E
100
AcDbEntity
  8
0
  6
CONTINUOUS
 62
     7
100
AcDbLine
 10
-2.100000399999999
 20
31.14994799999999
 30
0.0
 11
2.099997499999998
 21
31.14994799999999
 31
0.0
  0
LINE
  5
143
330
1E
100
AcDbEntity
  8
0
  6
CONTINUOUS
 62
     7
100
AcDbLine
 10
2.099975299999998
 20
31.149979
 30
0.0
 11
2.249971399999999
 21
30.999981
 31
0.0
  0
LINE
  5
144
330
1E
100
AcDbEntity
  8
0
  6
CONTINUOUS
 62
     7
100
AcDbLine
 10
-2.249972099999999
 20
30.99996
 30
0.0
 11
-2.0999651
 21
31.14996899999999
 31
0.0
  0
LINE
  5
145
330
1E
100
AcDbEntity
  8
0
  6
CONTINUOUS
 62
     7
100
AcDbLine
 10
4.9999561
 20
40.499939
 30
0.0
 11
4.9999561
 21
31.499954
 31
0.0
  0
LINE
  5
146
330
1E
100
AcDbEntity
  8
0
  6
CENTER
 62
     2
100
AcDbLine
 10
7.999999
 20
38.5
 30
0.0
 11
3.999989499999999
 21
38.5
 31
0.0
  0
LINE
  5
147
330
1E
100
AcDbEntity
  8
0
  6
CENTER
 62
     2
100
AcDbLine
 10
7.999999
 20
33.5
 30
0.0
 11
3.999986599999999
 21
33.5
 31
0.0
  0
LINE
  5
148
330
1E
100
AcDbEntity
  8
0
  6
CENTER
 62
     2
100
AcDbLine
 10
-4.0
 20
33.5
 30
0.0
 11
-8.0
 21
33.5
 31
0.0
  0
LINE
  5
149
330
1E
100
AcDbEntity
  8
0
  6
CENTER
 62
     2
100
AcDbLine
 10
-4.0
 20
38.5
 30
0.0
 11
-8.0
 21
38.5
 31
0.0
  0
LINE
  5
14A
330
1E
100
AcDbEntity
  8
0
  6
CENTER
 62
     2
100
AcDbLine
 10
0.0
 20
44.0
 30
0.0
 11
0.0
 21
28.0
 31
0.0
  0
LINE
  5
14B
330
1E
100
AcDbEntity
  8
0
  6
CENTER
 62
     2
100
AcDbLine
 10
-8.0
 20
36.0
 30
0.0
 11
7.999999
 21
36.0
 31
0.0
  0
LINE
  5
14C
330
1E
100
AcDbEntity
  8
0
  6
CONTINUOUS
 62
     7
100
AcDbLine
 10
1.8999968
 20
37.899994
 30
0.0
 11
-1.8999977
 21
37.899994
 31
0.0
  0
LINE
  5
14D
330
1E
100
AcDbEntity
  8
0
  6
CONTINUOUS
 62
     7
100
AcDbLine
 10
1.8999968
 20
34.09999099999999
 30
0.0
 11
-1.8999977
 21
34.09999099999999
 31
0.0
  0
LINE
  5
14E
330
1E
100
AcDbEntity
  8
0
  6
CONTINUOUS
 62
     7
100
AcDbLine
 10
1.8999977
 20
34.09999099999999
 30
0.0
 11
1.8999977
 21
37.899994
 31
0.0
  0
LINE
  5
14F
330
1E
100
AcDbEntity
  8
0
  6
CONTINUOUS
 62
     7
100
AcDbLine
 10
-1.899998699999999
 20
34.09999099999999
 30
0.0
 11
-1.899998699999999
 21
37.899994
 31
0.0
  0
LINE
  5
150
330
1E
100
AcDbEntity
  8
0
  6
CONTINUOUS
 62
     7
100
AcDbLine
 10
6.899979599999999
 20
39.0
 30
0.0
 11
6.899979599999999
 21
38.0
 31
0.0
  0
LINE
  5
151
330
1E
100
AcDbEntity
  8
0
  6
CONTINUOUS
 62
     7
100
AcDbLine
 10
-6.899979599999999
 20
39.0
 30
0.0
 11
-6.899979599999999
 21
38.0
 31
0.0
  0
LINE
  5
152
330
1E
100
AcDbEntity
  8
0
  6
CONTINUOUS
 62
     7
100
AcDbLine
 10
6.899979599999999
 20
34.0
 30
0.0
 11
6.899979599999999
 21
33.0
 31
0.0
  0
LINE
  5
153
330
1E
100
AcDbEntity
  8
0
  6
CONTINUOUS
 62
     7
100
AcDbLine
 10
-6.899979599999999
 20
34.0
 30
0.0
 11
-6.899979599999999
 21
33.0
 31
0.0
  0
LINE
  5
154
330
1E
100
AcDbEntity
  8
0
  6
CENTER
 62
     2
100
AcDbLine
 10
68.18208299999999
 20
9.700153399999997
 30
0.0
 11
68.18208299999999
 21
-4.099849700000007
 31
0.0
  0
LINE
  5
155
330
1E
100
AcDbEntity
  8
0
  6
CENTER
 62
     2
100
AcDbLine
 10
65.782074
 20
7.300151799999994
 30
0.0
 11
70.582077
 21
7.300151799999994
 31
0.0
  0
LINE
  5
156
330
1E
100
AcDbEntity
  8
0
  6
CENTER
 62
     2
100
AcDbLine
 10
65.782074
 20
-1.699848200000005
 30
0.0
 11
70.582077
 21
-1.699848200000005
 31
0.0
  0
LINE
  5
157
330
1E
100
AcDbEntity
  8
0
  6
CENTER
 62
     2
100
AcDbLine
 10
74.43208299999999
 20
6.900150299999992
 30
0.0
 11
74.43208299999999
 21
-1.299846599999995
 31
0.0
  0
LINE
  5
158
330
1E
100
AcDbEntity
  8
0
  6
CENTER
 62
     2
100
AcDbLine
 10
61.932083
 20
6.900150299999992
 30
0.0
 11
61.932083
 21
-1.299846599999995
 31
0.0
  0
LINE
  5
159
330
1E
100
AcDbEntity
  8
0
  6
CENTER
 62
     2
100
AcDbLine
 10
60.33207700000001
 20
5.300151799999994
 30
0.0
 11
76.03207399999999
 21
5.300151799999994
 31
0.0
  0
LINE
  5
15A
330
1E
100
AcDbEntity
  8
0
  6
CENTER
 62
     2
100
AcDbLine
 10
60.33207700000001
 20
0.3001518199999964
 30
0.0
 11
76.03207399999999
 21
0.3001518199999964
 31
0.0
  0
ARC
  5
15B
330
1E
100
AcDbEntity
  8
0
  6
CONTINUOUS
 62
     7
100
AcDbCircle
 10
5.9999695
 20
0.7000274699999949
 30
0.0
 40
0.2999993
100
AcDbArc
 50
14.534643
 51
89.99998199999998
  0
ARC
  5
15C
330
1E
100
AcDbEntity
  8
0
  6
CONTINUOUS
 62
     7
100
AcDbCircle
 10
6.599980400000001
 20
-1.799987799999996
 30
0.0
 40
0.2999993
100
AcDbArc
 50
328.48217
 51
13.58300599999999
  0
ARC
  5
15D
330
1E
100
AcDbEntity
  8
0
  6
CONTINUOUS
 62
     7
100
AcDbCircle
 10
6.399978599999998
 20
-2.699981699999995
 30
0.0
 40
0.2999994799999999
100
AcDbArc
 50
148.4816999999999
 51
179.99996
  0
ARC
  5
15E
330
1E
100
AcDbEntity
  8
0
  6
CONTINUOUS
 62
     7
100
AcDbCircle
 10
4.0
 20
2.399994899999995
 30
0.0
 40
1.4999981
100
AcDbArc
 50
57.76908399999999
 51
122.23104
  0
ARC
  5
15F
330
1E
100
AcDbEntity
  8
0
  6
CONTINUOUS
 62
     7
100
AcDbCircle
 10
3.249994299999999
 20
4.000213599999995
 30
0.0
 40
0.29999965
100
AcDbArc
 50
0.0
 51
89.99998199999998
  0
ARC
  5
160
330
1E
100
AcDbEntity
  8
0
  6
CONTINUOUS
 62
     7
100
AcDbCircle
 10
-5.999969499999999
 20
0.7000274699999949
 30
0.0
 40
0.2999993
100
AcDbArc
 50
89.99998199999998
 51
165.46532
  0
ARC
  5
161
330
1E
100
AcDbEntity
  8
0
  6
CONTINUOUS
 62
     7
100
AcDbCircle
 10
-6.5999804
 20
-1.799987799999996
 30
0.0
 40
0.2999993
100
AcDbArc
 50
166.41696
 51
211.5177899999999
  0
ARC
  5
162
330
1E
100
AcDbEntity
  8
0
  6
CONTINUOUS
 62
     7
100
AcDbCircle
 10
-6.399978599999998
 20
-2.699981699999995
 30
0.0
 40
0.2999994799999999
100
AcDbArc
 50
0.0
 51
31.518263
  0
ARC
  5
163
330
1E
100
AcDbEntity
  8
0
  6
CONTINUOUS
 62
     7
100
AcDbCircle
 10
-4.0
 20
2.399994899999995
 30
0.0
 40
1.4999981
100
AcDbArc
 50
57.76892
 51
122.2308799999999
  0
ARC
  5
164
330
1E
100
AcDbEntity
  8
0
  6
CONTINUOUS
 62
     7
100
AcDbCircle
 10
-3.2499943
 20
4.000213599999995
 30
0.0
 40
0.29999965
100
AcDbArc
 50
89.99998199999998
 51
179.99996
  0
ARC
  5
165
330
1E
100
AcDbEntity
  8
0
  6
CONTINUOUS
 62
     7
100
AcDbCircle
 10
-1.599999399999999
 20
7.000213599999995
 30
0.0
 40
0.29999989
100
AcDbArc
 50
89.99970899999999
 51
180.00002
  0
ARC
  5
166
330
1E
100
AcDbEntity
  8
0
  6
CONTINUOUS
 62
     7
100
AcDbCircle
 10
1.599999399999999
 20
7.000198400000002
 30
0.0
 40
0.29999989
100
AcDbArc
 50
0.0
 51
89.999763
  0
ARC
  5
167
330
1E
100
AcDbEntity
  8
0
  6
CONTINUOUS
 62
     7
100
AcDbCircle
 10
38.00009199999999
 20
2.399999600000001
 30
0.0
 40
1.4999981
100
AcDbArc
 50
57.76908399999999
 51
122.23099
  0
ARC
  5
168
330
1E
100
AcDbEntity
  8
0
  6
CONTINUOUS
 62
     7
100
AcDbCircle
 10
37.250076
 20
4.000219299999997
 30
0.0
 40
0.29999965
100
AcDbArc
 50
0.000017986089
 51
89.99998199999998
  0
ARC
  5
169
330
1E
100
AcDbEntity
  8
0
  6
CONTINUOUS
 62
     7
100
AcDbCircle
 10
30.00009199999999
 20
2.400000599999998
 30
0.0
 40
1.4999981
100
AcDbArc
 50
57.76892
 51
122.2308299999999
  0
ARC
  5
16A
330
1E
100
AcDbEntity
  8
0
  6
CONTINUOUS
 62
     7
100
AcDbCircle
 10
30.75009199999999
 20
4.000220299999995
 30
0.0
 40
0.29999965
100
AcDbArc
 50
89.99998199999998
 51
179.9999099999999
  0
ARC
  5
16B
330
1E
100
AcDbEntity
  8
0
  6
CONTINUOUS
 62
     7
100
AcDbCircle
 10
36.499924
 20
-2.799998299999998
 30
0.0
 40
0.69999933
100
AcDbArc
 50
224.4171399999999
 51
315.58656
  0
ARC
  5
16C
330
1E
100
AcDbEntity
  8
0
  6
CONTINUOUS
 62
     7
100
AcDbCircle
 10
31.50004599999999
 20
-2.800011600000004
 30
0.0
 40
0.69999933
100
AcDbArc
 50
224.41381
 51
315.58317
  0
ARC
  5
16D
330
1E
100
AcDbEntity
  8
0
  6
CONTINUOUS
 62
     7
100
AcDbCircle
 10
32.399963
 20
7.000159299999992
 30
0.0
 40
0.29999983
100
AcDbArc
 50
89.99998199999998
 51
180.0002899999999
  0
ARC
  5
16E
330
1E
100
AcDbEntity
  8
0
  6
CONTINUOUS
 62
     7
100
AcDbCircle
 10
35.59995999999999
 20
7.000163999999998
 30
0.0
 40
0.29999983
100
AcDbArc
 50
0.00040047664
 51
90.000037
  0
CIRCLE
  5
16F
330
1E
100
AcDbEntity
  8
0
  6
CONTINUOUS
 62
     7
100
AcDbCircle
 10
0.0
 20
36.0
 30
0.0
 40
3.599990799999999
  0
CIRCLE
  5
170
330
1E
100
AcDbEntity
  8
0
  6
CONTINUOUS
 62
     7
100
AcDbCircle
 10
0.0
 20
36.0
 30
0.0
 40
3.549997299999999
  0
CIRCLE
  5
171
330
1E
100
AcDbEntity
  8
0
  6
CONTINUOUS
 62
     7
100
AcDbCircle
 10
4.0
 20
39.99998499999999
 30
0.0
 40
0.79999924
  0
CIRCLE
  5
172
330
1E
100
AcDbEntity
  8
0
  6
CONTINUOUS
 62
     7
100
AcDbCircle
 10
3.999999
 20
31.99998499999999
 30
0.0
 40
0.79999924
  0
CIRCLE
  5
173
330
1E
100
AcDbEntity
  8
0
  6
CONTINUOUS
 62
     7
100
AcDbCircle
 10
-4.0
 20
32.0
 30
0.0
 40
0.79999924
  0
CIRCLE
  5
174
330
1E
100
AcDbEntity
  8
0
  6
CONTINUOUS
 62
     7
100
AcDbCircle
 10
-3.999998999999999
 20
40.0
 30
0.0
 40
0.79999924
  0
CIRCLE
  5
175
330
1E
100
AcDbEntity
  8
0
  6
CONTINUOUS
 62
     7
100
AcDbCircle
 10
0.0
 20
36.0
 30
0.0
 40
0.8999999199999999
  0
CIRCLE
  5
176
330
1E
100
AcDbEntity
  8
0
  6
CONTINUOUS
 62
     7
100
AcDbCircle
 10
0.0
 20
36.0
 30
0.0
 40
1.249999
  0
CIRCLE
  5
177
330
1E
100
AcDbEntity
  8
0
  6
CONTINUOUS
 62
     7
100
AcDbCircle
 10
61.932083
 20
5.300151799999994
 30
0.0
 40
0.60000002
  0
CIRCLE
  5
178
330
1E
100
AcDbEntity
  8
0
  6
CONTINUOUS
 62
     7
100
AcDbCircle
 10
74.43208299999999
 20
5.300151799999994
 30
0.0
 40
0.60000002
  0
CIRCLE
  5
179
330
1E
100
AcDbEntity
  8
0
  6
CONTINUOUS
 62
     7
100
AcDbCircle
 10
74.43208299999999
 20
0.3001518199999964
 30
0.0
 40
0.60000002
  0
CIRCLE
  5
17A
330
1E
100
AcDbEntity
  8
0
  6
CONTINUOUS
 62
     7
100
AcDbCircle
 10
61.932083
 20
0.3001518199999964
 30
0.0
 40
0.60000002
  0
CIRCLE
  5
17B
330
1E
100
AcDbEntity
  8
0
  6
CONTINUOUS
 62
     7
100
AcDbCircle
 10
68.18208299999999
 20
-1.699848200000005
 30
0.0
 40
0.8999999800000001
  0
CIRCLE
  5
17C
330
1E
100
AcDbEntity
  8
0
  6
CONTINUOUS
 62
     7
100
AcDbCircle
 10
68.18208299999999
 20
7.300151799999994
 30
0.0
 40
0.8999999800000001
  0
TEXT
  5
17D
330
1E
100
AcDbEntity
  8
0
  6
CONTINUOUS
 62
     4
100
AcDbText
 10
29.352604
 20
37.072751
 30
0.0
 40
1.650000099999999
  1
B3F-10
 41
1.07
100
AcDbText
  0
TEXT
  5
17E
330
1E
100
AcDbEntity
  8
0
  6
CONTINUOUS
 62
     4
100
AcDbText
 10
60.45444899999999
 20
-11.524552
 30
0.0
 40
1.099999399999999
  1
  MOUNTING HOLES
 41
1.08
100
AcDbText
  0
TEXT
  5
17F
330
1E
100
AcDbEntity
  8
0
  6
CONTINUOUS
 62
     4
100
AcDbText
 10
62.65446099999999
 20
-13.17456099999999
 30
0.0
 40
1.099999399999999
  1
  (TOP VIEW)
 41
1.08
100
AcDbText
  0
CIRCLE
  5
180
330
1E
100
AcDbEntity
  8
0
  6
CONTINUOUS
 62
     7
100
AcDbCircle
 10
0.0
 20
0.0
 30
0.0
 40
0.25
  0
LINE
  5
181
330
1E
100
AcDbEntity
  8
0
  6
BYBLOCK
 62
     4
100
AcDbLine
 10
66.41521113424635
 20
5.000551031603873
 30
0.0
 11
76.81895683905548
 21
18.54112637308296
 31
0.0
  0
LINE
  5
182
330
1E
100
AcDbEntity
  8
0
  6
BYBLOCK
 62
     4
100
AcDbLine
 10
76.81895683905548
 20
18.54112637308296
 30
0.0
 11
76.95034090834219
 21
18.71212400598595
 31
0.0
  0
SOLID
  5
183
330
1E
100
AcDbEntity
  8
0
  6
BYBLOCK
 62
     4
100
AcDbTrace
 10
66.91808566356819
 20
5.244717384239384
 30
0.0
 11
66.52160276973103
 21
5.549350466642659
 31
0.0
 12
67.63374346385943
 22
6.58648260695247
 32
0.0
 13
67.63374346385943
 23
6.58648260695247
 33
0.0
  0
SOLID
  5
184
330
1E
100
AcDbEntity
  8
0
  6
BYBLOCK
 62
     4
100
AcDbTrace
 10
69.84256323026897
 20
9.050953133357376
 30
0.0
 11
69.44608033643181
 21
9.35558621576065
 31
0.0
 12
68.73042253614056
 22
8.013820993047565
 32
0.0
 13
68.73042253614056
 23
8.013820993047565
 33
0.0
  0
TEXT
  5
185
330
1E
100
AcDbEntity
  8
0
  6
BYBLOCK
 62
     4
100
AcDbText
 10
70.11018742063512
 20
10.65588517744589
 30
0.0
 40
1.1
  1
2-%%c1.8%%P0.05  
 50
52.46353920280114
 72
     1
 11
73.36011653449387
 21
15.788424583519
 31
0.0
100
AcDbText
 73
     2
  0
POINT
  5
186
330
1E
100
AcDbEntity
  8
DEFPOINTS
  6
BYBLOCK
 62
     0
100
AcDbPoint
 10
67.63374346385943
 20
6.586482606952458
 30
0.0
  0
LINE
  5
187
330
1E
100
AcDbEntity
  8
0
  6
BYBLOCK
 62
     4
100
AcDbLine
 10
72.65207354418021
 20
2.195294675088295
 30
0.0
 11
85.21660541859827
 21
-11.18192797475779
 31
0.0
  0
LINE
  5
188
330
1E
100
AcDbEntity
  8
0
  6
BYBLOCK
 62
     4
100
AcDbLine
 10
85.21660541859827
 20
-11.18192797475779
 30
0.0
 11
86.04817870107156
 21
-12.06728853259585
 31
0.0
  0
SOLID
  5
189
330
1E
100
AcDbEntity
  8
0
  6
BYBLOCK
 62
     4
100
AcDbTrace
 10
72.81215777915568
 20
1.659689374785579
 30
0.0
 11
73.17660832540766
 21
2.001998882887
 31
0.0
 12
74.02131157658593
 22
0.7374924900803661
 32
0.0
 13
74.02131157658593
 23
0.7374924900803661
 33
0.0
  0
SOLID
  5
18A
330
1E
100
AcDbEntity
  8
0
  6
BYBLOCK
 62
     4
100
AcDbTrace
 10
75.68755767459229
 20
-1.401695242886967
 30
0.0
 11
76.05200822084427
 21
-1.059385734785546
 31
0.0
 12
74.84285442341402
 22
-0.1371888500803327
 32
0.0
 13
74.84285442341402
 23
-0.1371888500803327
 33
0.0
  0
TEXT
  5
18B
330
1E
100
AcDbEntity
  8
0
  6
BYBLOCK
 62
     4
100
AcDbText
 10
79.17187310583123
 20
-3.904299415226289
 30
0.0
 40
1.1
  1
4-%%c1.2%%P0.05  
 50
313.2056522954733
 72
     1
 11
83.71471375473561
 21
-7.937610565963622
 31
0.0
100
AcDbText
 73
     2
  0
ENDSEC
  0
SECTION
  2
OBJECTS
  0
DICTIONARY
  5
C
330
0
100
AcDbDictionary
  3
ACAD_GROUP
350
D
  3
ACAD_LAYOUT
350
19
  3
ACAD_MLINESTYLE
350
16
  3
ACAD_PLOTSETTINGS
350
18
1001
ACAD
1000
TREAT_AS_HARD
1070
     0
  0
DICTIONARY
  5
18F
330
1E
100
AcDbDictionary
  3
ACAD_LAYOUTSELFREF
350
1CC
1001
ACAD
1000
TREAT_AS_HARD
1070
     1
  0
DICTIONARY
  5
191
330
1A
100
AcDbDictionary
  3
ACAD_LAYOUTSELFREF
350
1CB
1001
ACAD
1000
TREAT_AS_HARD
1070
     1
  0
DICTIONARY
  5
D
102
{ACAD_REACTORS
330
C
102
}
330
C
100
AcDbDictionary
1001
ACAD
1000
TREAT_AS_HARD
1070
     0
  0
DICTIONARY
  5
19
102
{ACAD_REACTORS
330
C
102
}
330
C
100
AcDbDictionary
1001
ACAD
1000
TREAT_AS_HARD
1070
     0
  0
DICTIONARY
  5
16
102
{ACAD_REACTORS
330
C
102
}
330
C
100
AcDbDictionary
  3
STANDARD
350
17
1001
ACAD
1000
TREAT_AS_HARD
1070
     0
  0
DICTIONARY
  5
18
102
{ACAD_REACTORS
330
C
102
}
330
C
100
AcDbDictionary
1001
ACAD
1000
TREAT_AS_HARD
1070
     0
  0
XRECORD
  5
1CC
102
{ACAD_REACTORS
330
18F
102
}
330
18F
100
AcDbXrecord
340
1E
  0
XRECORD
  5
1CB
102
{ACAD_REACTORS
330
191
102
}
330
191
100
AcDbXrecord
340
1A
  0
MLINESTYLE
  5
17
102
{ACAD_REACTORS
330
16
102
}
330
16
100
AcDbMlineStyle
  2
STANDARD
 70
     0
  3

 62
   256
 51
90.0
 52
90.0
 71
     2
 49
0.5
 62
   256
  6
BYLAYER
 49
-0.5
 62
   256
  6
BYLAYER
  0
ENDSEC
  0
EOF
