G04 Layer_Physical_Order=2*
G04 Layer_Color=11436288*
%FSLAX23Y23*%
%MOIN*%
G70*
G01*
G75*
%ADD10C,0.015*%
%ADD12C,0.078*%
%ADD13R,0.071X0.071*%
%ADD14C,0.071*%
%ADD15C,0.079*%
%ADD16R,0.071X0.071*%
%ADD17C,0.197*%
%ADD18C,0.075*%
G36*
X4320Y4196D02*
X4320Y3395D01*
X4166Y3395D01*
X4164Y3400D01*
X4223Y3458D01*
X4226Y3464D01*
X4228Y3470D01*
X4228Y3470D01*
X4228Y3500D01*
X4255Y3500D01*
X4255Y3590D01*
X4228Y3590D01*
X4228Y3650D01*
X4280Y3650D01*
X4280Y3740D01*
X4190Y3740D01*
X4190Y3713D01*
X4085Y3713D01*
X4085Y3765D01*
X3995Y3765D01*
X3995Y3765D01*
X3995Y3765D01*
X3990Y3765D01*
X3905Y3850D01*
X3905Y3915D01*
X3815Y3915D01*
X3815Y3825D01*
X3880Y3825D01*
X3995Y3710D01*
X3995Y3675D01*
X4085Y3675D01*
X4085Y3677D01*
X4190Y3677D01*
X4190Y3650D01*
X4192Y3650D01*
X4192Y3590D01*
X4165Y3590D01*
X4165Y3500D01*
X4192Y3500D01*
X4192Y3478D01*
X4109Y3395D01*
X3967Y3395D01*
X3963Y3398D01*
X3957Y3401D01*
X3957Y3462D01*
X3955Y3468D01*
X3951Y3474D01*
X3951Y3474D01*
X3903Y3523D01*
X3905Y3527D01*
X3968Y3527D01*
X3970Y3522D01*
X3978Y3513D01*
X3987Y3505D01*
X3998Y3501D01*
X4005Y3500D01*
X4005Y3545D01*
X4005Y3590D01*
X3998Y3589D01*
X3987Y3585D01*
X3978Y3577D01*
X3970Y3568D01*
X3968Y3563D01*
X3898Y3563D01*
X3843Y3618D01*
X3845Y3622D01*
X4008Y3622D01*
X4068Y3562D01*
X4066Y3557D01*
X4064Y3545D01*
X4066Y3533D01*
X4070Y3522D01*
X4078Y3513D01*
X4087Y3505D01*
X4098Y3501D01*
X4110Y3499D01*
X4122Y3501D01*
X4133Y3505D01*
X4142Y3513D01*
X4150Y3522D01*
X4154Y3533D01*
X4156Y3545D01*
X4154Y3557D01*
X4150Y3568D01*
X4142Y3577D01*
X4133Y3585D01*
X4122Y3589D01*
X4110Y3591D01*
X4098Y3589D01*
X4093Y3587D01*
X4028Y3653D01*
X4022Y3656D01*
X4015Y3658D01*
X3652Y3658D01*
X3608Y3702D01*
X3608Y4200D01*
X3659Y4200D01*
X3665Y4199D01*
X3671Y4200D01*
X3830Y4200D01*
X3962Y4068D01*
X3962Y3880D01*
X3964Y3873D01*
X3967Y3867D01*
X3998Y3837D01*
X3996Y3832D01*
X3994Y3820D01*
X3996Y3808D01*
X4000Y3797D01*
X4008Y3788D01*
X4017Y3780D01*
X4028Y3776D01*
X4040Y3774D01*
X4052Y3776D01*
X4063Y3780D01*
X4072Y3788D01*
X4080Y3797D01*
X4084Y3808D01*
X4086Y3820D01*
X4084Y3832D01*
X4080Y3843D01*
X4072Y3852D01*
X4063Y3860D01*
X4052Y3864D01*
X4040Y3866D01*
X4028Y3864D01*
X4023Y3862D01*
X3998Y3887D01*
X3998Y3892D01*
X4003Y3894D01*
X4008Y3888D01*
X4017Y3880D01*
X4028Y3876D01*
X4035Y3875D01*
X4035Y3920D01*
X4035Y3965D01*
X4028Y3964D01*
X4017Y3960D01*
X4008Y3952D01*
X4003Y3946D01*
X3998Y3948D01*
X3998Y4062D01*
X3998Y4062D01*
X4003Y4063D01*
X4008Y4060D01*
X4015Y4058D01*
X4107Y4058D01*
X4107Y3905D01*
X4109Y3898D01*
X4112Y3892D01*
X4193Y3812D01*
X4191Y3807D01*
X4189Y3795D01*
X4191Y3783D01*
X4195Y3772D01*
X4203Y3763D01*
X4212Y3755D01*
X4223Y3751D01*
X4235Y3749D01*
X4247Y3751D01*
X4258Y3755D01*
X4267Y3763D01*
X4275Y3772D01*
X4279Y3783D01*
X4281Y3795D01*
X4279Y3807D01*
X4275Y3818D01*
X4267Y3827D01*
X4258Y3835D01*
X4247Y3839D01*
X4235Y3841D01*
X4223Y3839D01*
X4218Y3837D01*
X4143Y3912D01*
X4143Y4076D01*
X4143Y4077D01*
X4146Y4081D01*
X4151Y4081D01*
X4152Y4077D01*
X4160Y4066D01*
X4170Y4058D01*
X4182Y4054D01*
X4195Y4052D01*
X4208Y4054D01*
X4220Y4058D01*
X4230Y4066D01*
X4238Y4077D01*
X4243Y4089D01*
X4244Y4101D01*
X4243Y4114D01*
X4238Y4126D01*
X4230Y4136D01*
X4220Y4144D01*
X4208Y4149D01*
X4195Y4151D01*
X4182Y4149D01*
X4170Y4144D01*
X4160Y4136D01*
X4152Y4126D01*
X4149Y4119D01*
X4033Y4119D01*
X3956Y4195D01*
X3958Y4200D01*
X4259Y4200D01*
X4262Y4196D01*
X4262Y3947D01*
X4252Y3937D01*
X4247Y3939D01*
X4240Y3940D01*
X4240Y3900D01*
X4280Y3900D01*
X4279Y3907D01*
X4277Y3912D01*
X4293Y3927D01*
X4296Y3933D01*
X4298Y3940D01*
X4298Y4200D01*
X4316Y4200D01*
X4320Y4196D01*
X4320Y4196D02*
G37*
G36*
X3710Y3565D02*
X3697Y3552D01*
X3692Y3554D01*
X3680Y3556D01*
X3668Y3554D01*
X3657Y3550D01*
X3648Y3542D01*
X3640Y3533D01*
X3636Y3522D01*
X3634Y3510D01*
X3636Y3498D01*
X3640Y3487D01*
X3648Y3478D01*
X3657Y3470D01*
X3668Y3466D01*
X3680Y3464D01*
X3692Y3466D01*
X3703Y3470D01*
X3712Y3478D01*
X3720Y3487D01*
X3724Y3498D01*
X3726Y3510D01*
X3724Y3522D01*
X3722Y3527D01*
X3739Y3544D01*
X3742Y3543D01*
X3744Y3538D01*
X3740Y3533D01*
X3736Y3522D01*
X3734Y3510D01*
X3736Y3498D01*
X3740Y3487D01*
X3748Y3478D01*
X3757Y3470D01*
X3762Y3468D01*
X3762Y3395D01*
X3573Y3395D01*
X3570Y3398D01*
X3570Y3462D01*
X3574Y3465D01*
X3580Y3464D01*
X3592Y3466D01*
X3603Y3470D01*
X3612Y3478D01*
X3620Y3487D01*
X3624Y3498D01*
X3626Y3510D01*
X3624Y3522D01*
X3622Y3527D01*
X3665Y3570D01*
X3708Y3570D01*
X3710Y3565D01*
X3710Y3565D02*
G37*
G36*
X3864Y3475D02*
X3864Y3395D01*
X3798Y3395D01*
X3798Y3468D01*
X3803Y3470D01*
X3812Y3478D01*
X3820Y3487D01*
X3824Y3498D01*
X3825Y3507D01*
X3831Y3509D01*
X3864Y3475D01*
X3864Y3475D02*
G37*
G36*
X3627Y4771D02*
X3625Y4768D01*
X3621Y4757D01*
X3619Y4745D01*
X3621Y4733D01*
X3625Y4722D01*
X3633Y4713D01*
X3642Y4705D01*
X3653Y4701D01*
X3665Y4699D01*
X3677Y4701D01*
X3688Y4705D01*
X3697Y4713D01*
X3705Y4722D01*
X3707Y4727D01*
X3750Y4727D01*
X3750Y4620D01*
X3745Y4618D01*
X3710Y4653D01*
X3709Y4657D01*
X3705Y4668D01*
X3697Y4677D01*
X3688Y4685D01*
X3677Y4689D01*
X3665Y4691D01*
X3653Y4689D01*
X3642Y4685D01*
X3633Y4677D01*
X3625Y4668D01*
X3621Y4657D01*
X3619Y4645D01*
X3621Y4633D01*
X3625Y4622D01*
X3633Y4613D01*
X3642Y4605D01*
X3653Y4601D01*
X3665Y4599D01*
X3677Y4601D01*
X3688Y4605D01*
X3697Y4613D01*
X3700Y4613D01*
X3750Y4563D01*
X3750Y4492D01*
X3745Y4490D01*
X3707Y4528D01*
X3709Y4533D01*
X3710Y4540D01*
X3670Y4540D01*
X3670Y4500D01*
X3677Y4501D01*
X3682Y4503D01*
X3742Y4443D01*
X3742Y4402D01*
X3720Y4380D01*
X3694Y4380D01*
X3688Y4385D01*
X3677Y4389D01*
X3665Y4391D01*
X3653Y4389D01*
X3642Y4385D01*
X3636Y4380D01*
X3633Y4381D01*
X3631Y4386D01*
X3648Y4403D01*
X3653Y4401D01*
X3665Y4399D01*
X3677Y4401D01*
X3688Y4405D01*
X3697Y4413D01*
X3705Y4422D01*
X3709Y4433D01*
X3711Y4445D01*
X3709Y4457D01*
X3705Y4468D01*
X3697Y4477D01*
X3688Y4485D01*
X3677Y4489D01*
X3665Y4491D01*
X3653Y4489D01*
X3642Y4485D01*
X3633Y4477D01*
X3625Y4468D01*
X3621Y4457D01*
X3619Y4445D01*
X3621Y4433D01*
X3623Y4428D01*
X3577Y4383D01*
X3576Y4380D01*
X3094Y4380D01*
X3088Y4385D01*
X3077Y4389D01*
X3065Y4391D01*
X3053Y4389D01*
X3048Y4387D01*
X3018Y4418D01*
X3012Y4421D01*
X3005Y4423D01*
X2960Y4423D01*
X2960Y4450D01*
X2870Y4450D01*
X2870Y4380D01*
X2848Y4380D01*
X2848Y4548D01*
X2876Y4575D01*
X2881Y4575D01*
X2883Y4573D01*
X2892Y4565D01*
X2903Y4561D01*
X2915Y4559D01*
X2927Y4561D01*
X2938Y4565D01*
X2947Y4573D01*
X2955Y4582D01*
X2957Y4587D01*
X3025Y4587D01*
X3032Y4589D01*
X3038Y4592D01*
X3043Y4597D01*
X3047Y4595D01*
X3047Y4587D01*
X3042Y4585D01*
X3033Y4577D01*
X3025Y4568D01*
X3021Y4557D01*
X3019Y4545D01*
X3021Y4533D01*
X3025Y4522D01*
X3033Y4513D01*
X3042Y4505D01*
X3053Y4501D01*
X3065Y4499D01*
X3077Y4501D01*
X3088Y4505D01*
X3097Y4513D01*
X3105Y4522D01*
X3109Y4533D01*
X3111Y4545D01*
X3109Y4557D01*
X3105Y4568D01*
X3097Y4577D01*
X3088Y4585D01*
X3083Y4587D01*
X3083Y4603D01*
X3088Y4605D01*
X3097Y4613D01*
X3105Y4622D01*
X3109Y4633D01*
X3111Y4645D01*
X3109Y4657D01*
X3105Y4668D01*
X3097Y4677D01*
X3088Y4685D01*
X3077Y4689D01*
X3065Y4691D01*
X3053Y4689D01*
X3042Y4685D01*
X3033Y4677D01*
X3025Y4668D01*
X3021Y4657D01*
X3019Y4645D01*
X3021Y4633D01*
X3023Y4628D01*
X3018Y4623D01*
X2957Y4623D01*
X2955Y4628D01*
X2947Y4637D01*
X2938Y4645D01*
X2927Y4649D01*
X2915Y4651D01*
X2903Y4649D01*
X2892Y4645D01*
X2883Y4637D01*
X2875Y4628D01*
X2872Y4621D01*
X2870Y4620D01*
X2867Y4618D01*
X2867Y4618D01*
X2830Y4580D01*
X2825Y4582D01*
X2825Y4590D01*
X2898Y4663D01*
X2903Y4661D01*
X2910Y4660D01*
X2910Y4700D01*
X2870Y4700D01*
X2871Y4693D01*
X2873Y4688D01*
X2830Y4645D01*
X2825Y4647D01*
X2825Y4775D01*
X3025Y4775D01*
X3027Y4771D01*
X3025Y4768D01*
X3021Y4757D01*
X3019Y4745D01*
X3021Y4733D01*
X3025Y4722D01*
X3033Y4713D01*
X3042Y4705D01*
X3053Y4701D01*
X3065Y4699D01*
X3077Y4701D01*
X3088Y4705D01*
X3097Y4713D01*
X3105Y4722D01*
X3109Y4733D01*
X3111Y4745D01*
X3109Y4757D01*
X3105Y4768D01*
X3103Y4771D01*
X3105Y4775D01*
X3625Y4775D01*
X3627Y4771D01*
X3627Y4771D02*
G37*
%LPC*%
G36*
X4280Y3890D02*
X4240Y3890D01*
X4240Y3850D01*
X4247Y3851D01*
X4258Y3855D01*
X4267Y3863D01*
X4275Y3872D01*
X4279Y3883D01*
X4280Y3890D01*
X4280Y3890D02*
G37*
G36*
X4230Y3890D02*
X4190Y3890D01*
X4191Y3883D01*
X4195Y3872D01*
X4203Y3863D01*
X4212Y3855D01*
X4223Y3851D01*
X4230Y3850D01*
X4230Y3890D01*
X4230Y3890D02*
G37*
G36*
X4085Y3915D02*
X4045Y3915D01*
X4045Y3875D01*
X4052Y3876D01*
X4063Y3880D01*
X4072Y3888D01*
X4080Y3897D01*
X4084Y3908D01*
X4085Y3915D01*
X4085Y3915D02*
G37*
G36*
X4230Y3940D02*
X4223Y3939D01*
X4212Y3935D01*
X4203Y3927D01*
X4195Y3918D01*
X4191Y3907D01*
X4190Y3900D01*
X4230Y3900D01*
X4230Y3940D01*
X4230Y3940D02*
G37*
G36*
X3665Y3991D02*
X3653Y3989D01*
X3642Y3985D01*
X3633Y3977D01*
X3625Y3968D01*
X3621Y3957D01*
X3619Y3945D01*
X3621Y3933D01*
X3625Y3922D01*
X3633Y3913D01*
X3642Y3905D01*
X3653Y3901D01*
X3665Y3899D01*
X3677Y3901D01*
X3688Y3905D01*
X3697Y3913D01*
X3705Y3922D01*
X3709Y3933D01*
X3711Y3945D01*
X3709Y3957D01*
X3705Y3968D01*
X3697Y3977D01*
X3688Y3985D01*
X3677Y3989D01*
X3665Y3991D01*
X3665Y3991D02*
G37*
G36*
X4015Y3590D02*
X4015Y3550D01*
X4055Y3550D01*
X4054Y3557D01*
X4050Y3568D01*
X4042Y3577D01*
X4033Y3585D01*
X4022Y3589D01*
X4015Y3590D01*
X4015Y3590D02*
G37*
G36*
X4055Y3540D02*
X4015Y3540D01*
X4015Y3500D01*
X4022Y3501D01*
X4033Y3505D01*
X4042Y3513D01*
X4050Y3522D01*
X4054Y3533D01*
X4055Y3540D01*
X4055Y3540D02*
G37*
G36*
X2920Y4750D02*
X2920Y4710D01*
X2960Y4710D01*
X2959Y4717D01*
X2955Y4728D01*
X2947Y4737D01*
X2938Y4745D01*
X2927Y4749D01*
X2920Y4750D01*
X2920Y4750D02*
G37*
G36*
X3665Y3891D02*
X3653Y3889D01*
X3642Y3885D01*
X3633Y3877D01*
X3625Y3868D01*
X3621Y3857D01*
X3619Y3845D01*
X3621Y3833D01*
X3625Y3822D01*
X3633Y3813D01*
X3642Y3805D01*
X3653Y3801D01*
X3665Y3799D01*
X3677Y3801D01*
X3688Y3805D01*
X3697Y3813D01*
X3705Y3822D01*
X3709Y3833D01*
X3711Y3845D01*
X3709Y3857D01*
X3705Y3868D01*
X3697Y3877D01*
X3688Y3885D01*
X3677Y3889D01*
X3665Y3891D01*
X3665Y3891D02*
G37*
G36*
X3665Y3786D02*
X3653Y3784D01*
X3642Y3780D01*
X3633Y3772D01*
X3625Y3763D01*
X3621Y3752D01*
X3619Y3740D01*
X3621Y3728D01*
X3625Y3717D01*
X3633Y3708D01*
X3642Y3700D01*
X3653Y3696D01*
X3665Y3694D01*
X3677Y3696D01*
X3688Y3700D01*
X3697Y3708D01*
X3705Y3717D01*
X3709Y3728D01*
X3711Y3740D01*
X3709Y3752D01*
X3705Y3763D01*
X3697Y3772D01*
X3688Y3780D01*
X3677Y3784D01*
X3665Y3786D01*
X3665Y3786D02*
G37*
G36*
X2910Y4750D02*
X2903Y4749D01*
X2892Y4745D01*
X2883Y4737D01*
X2875Y4728D01*
X2871Y4717D01*
X2870Y4710D01*
X2910Y4710D01*
X2910Y4750D01*
X2910Y4750D02*
G37*
G36*
X3665Y4191D02*
X3653Y4189D01*
X3642Y4185D01*
X3633Y4177D01*
X3625Y4168D01*
X3621Y4157D01*
X3619Y4145D01*
X3621Y4133D01*
X3625Y4122D01*
X3633Y4113D01*
X3642Y4105D01*
X3653Y4101D01*
X3665Y4099D01*
X3677Y4101D01*
X3682Y4103D01*
X3814Y3971D01*
X3814Y3970D01*
X3816Y3958D01*
X3820Y3947D01*
X3828Y3938D01*
X3837Y3930D01*
X3848Y3926D01*
X3860Y3924D01*
X3872Y3926D01*
X3883Y3930D01*
X3892Y3938D01*
X3900Y3947D01*
X3904Y3958D01*
X3906Y3970D01*
X3904Y3982D01*
X3900Y3993D01*
X3892Y4002D01*
X3883Y4010D01*
X3872Y4014D01*
X3860Y4016D01*
X3848Y4014D01*
X3837Y4010D01*
X3831Y4005D01*
X3707Y4128D01*
X3709Y4133D01*
X3711Y4145D01*
X3709Y4157D01*
X3705Y4168D01*
X3697Y4177D01*
X3688Y4185D01*
X3677Y4189D01*
X3665Y4191D01*
X3665Y4191D02*
G37*
G36*
X3660Y4540D02*
X3620Y4540D01*
X3621Y4533D01*
X3625Y4522D01*
X3633Y4513D01*
X3642Y4505D01*
X3653Y4501D01*
X3660Y4500D01*
X3660Y4540D01*
X3660Y4540D02*
G37*
G36*
X2915Y4551D02*
X2903Y4549D01*
X2892Y4545D01*
X2883Y4537D01*
X2875Y4528D01*
X2871Y4517D01*
X2869Y4505D01*
X2871Y4493D01*
X2875Y4482D01*
X2883Y4473D01*
X2892Y4465D01*
X2903Y4461D01*
X2915Y4459D01*
X2927Y4461D01*
X2938Y4465D01*
X2947Y4473D01*
X2955Y4482D01*
X2957Y4487D01*
X2998Y4487D01*
X3023Y4462D01*
X3021Y4457D01*
X3019Y4445D01*
X3021Y4433D01*
X3025Y4422D01*
X3033Y4413D01*
X3042Y4405D01*
X3053Y4401D01*
X3065Y4399D01*
X3077Y4401D01*
X3088Y4405D01*
X3097Y4413D01*
X3105Y4422D01*
X3109Y4433D01*
X3111Y4445D01*
X3109Y4457D01*
X3105Y4468D01*
X3097Y4477D01*
X3088Y4485D01*
X3077Y4489D01*
X3065Y4491D01*
X3053Y4489D01*
X3048Y4487D01*
X3018Y4518D01*
X3012Y4521D01*
X3005Y4523D01*
X2957Y4523D01*
X2955Y4528D01*
X2947Y4537D01*
X2938Y4545D01*
X2927Y4549D01*
X2915Y4551D01*
X2915Y4551D02*
G37*
G36*
X3660Y4590D02*
X3653Y4589D01*
X3642Y4585D01*
X3633Y4577D01*
X3625Y4568D01*
X3621Y4557D01*
X3620Y4550D01*
X3660Y4550D01*
X3660Y4590D01*
X3660Y4590D02*
G37*
G36*
X2960Y4700D02*
X2920Y4700D01*
X2920Y4660D01*
X2927Y4661D01*
X2938Y4665D01*
X2947Y4673D01*
X2955Y4682D01*
X2959Y4693D01*
X2960Y4700D01*
X2960Y4700D02*
G37*
G36*
X3670Y4590D02*
X3670Y4550D01*
X3710Y4550D01*
X3709Y4557D01*
X3705Y4568D01*
X3697Y4577D01*
X3688Y4585D01*
X3677Y4589D01*
X3670Y4590D01*
X3670Y4590D02*
G37*
G36*
X3865Y4115D02*
X3865Y4075D01*
X3905Y4075D01*
X3904Y4082D01*
X3900Y4093D01*
X3892Y4102D01*
X3883Y4110D01*
X3872Y4114D01*
X3865Y4115D01*
X3865Y4115D02*
G37*
G36*
X3665Y4091D02*
X3653Y4089D01*
X3642Y4085D01*
X3633Y4077D01*
X3625Y4068D01*
X3621Y4057D01*
X3619Y4045D01*
X3621Y4033D01*
X3625Y4022D01*
X3633Y4013D01*
X3642Y4005D01*
X3653Y4001D01*
X3665Y3999D01*
X3677Y4001D01*
X3688Y4005D01*
X3697Y4013D01*
X3705Y4022D01*
X3709Y4033D01*
X3711Y4045D01*
X3709Y4057D01*
X3705Y4068D01*
X3697Y4077D01*
X3688Y4085D01*
X3677Y4089D01*
X3665Y4091D01*
X3665Y4091D02*
G37*
G36*
X4045Y3965D02*
X4045Y3925D01*
X4085Y3925D01*
X4084Y3932D01*
X4080Y3943D01*
X4072Y3952D01*
X4063Y3960D01*
X4052Y3964D01*
X4045Y3965D01*
X4045Y3965D02*
G37*
G36*
X3855Y4065D02*
X3815Y4065D01*
X3816Y4058D01*
X3820Y4047D01*
X3828Y4038D01*
X3837Y4030D01*
X3848Y4026D01*
X3855Y4025D01*
X3855Y4065D01*
X3855Y4065D02*
G37*
G36*
X3855Y4115D02*
X3848Y4114D01*
X3837Y4110D01*
X3828Y4102D01*
X3820Y4093D01*
X3816Y4082D01*
X3815Y4075D01*
X3855Y4075D01*
X3855Y4115D01*
X3855Y4115D02*
G37*
G36*
X3905Y4065D02*
X3865Y4065D01*
X3865Y4025D01*
X3872Y4026D01*
X3883Y4030D01*
X3892Y4038D01*
X3900Y4047D01*
X3904Y4058D01*
X3905Y4065D01*
X3905Y4065D02*
G37*
%LPD*%
D10*
X3859Y3155D02*
X4125Y3420D01*
X2720Y3625D02*
X2855Y3760D01*
X2720Y3335D02*
X2720Y3625D01*
X2720Y3335D02*
X2925Y3130D01*
X2745Y3345D02*
X2935Y3155D01*
X2745Y3345D02*
X2745Y3613D01*
X2880Y3748D01*
X2770Y3600D02*
X2905Y3735D01*
X2770Y3395D02*
X2770Y3600D01*
X2770Y3395D02*
X2820Y3345D01*
X2795Y3590D02*
X2933Y3727D01*
X2795Y3430D02*
X2795Y3590D01*
X2795Y3430D02*
X2815Y3410D01*
X2820Y3579D02*
X2981Y3740D01*
X2820Y3445D02*
X2820Y3579D01*
X2820Y3445D02*
X2830Y3435D01*
X3420Y3435D01*
X2815Y3410D02*
X3408Y3410D01*
X3812Y3588D02*
X3939Y3462D01*
X3939Y3355D02*
X3939Y3462D01*
X3408Y3410D02*
X3485Y3333D01*
X3485Y3255D02*
X3485Y3333D01*
X2820Y3345D02*
X2830Y3345D01*
X3590Y3695D02*
X3590Y4370D01*
X3590Y3695D02*
X3645Y3640D01*
X4015Y3640D01*
X3746Y4345D02*
X4015Y4076D01*
X3665Y4345D02*
X3746Y4345D01*
X3843Y4364D02*
X3843Y4495D01*
X3693Y4645D02*
X3843Y4495D01*
X3665Y4645D02*
X3693Y4645D01*
X4210Y3470D02*
X4210Y3545D01*
X3870Y3130D02*
X4210Y3470D01*
X3135Y3845D02*
X3155Y3825D01*
X3065Y3845D02*
X3135Y3845D01*
X3070Y3945D02*
X3180Y3835D01*
X3065Y3945D02*
X3070Y3945D01*
X3205Y3655D02*
X3205Y4105D01*
X3065Y4245D02*
X3205Y4105D01*
X3658Y3588D02*
X3812Y3588D01*
X3580Y3510D02*
X3658Y3588D01*
X3420Y3435D02*
X3500Y3355D01*
X3000Y4145D02*
X3065Y4145D01*
X2905Y4050D02*
X3000Y4145D01*
X2905Y3735D02*
X2905Y4050D01*
X3224Y3251D02*
X3224Y3345D01*
X3224Y3251D02*
X3295Y3180D01*
X3720Y3180D01*
X3810Y4245D02*
X3980Y4075D01*
X3980Y3880D02*
X3980Y4075D01*
X3980Y3880D02*
X4040Y3820D01*
X3665Y4245D02*
X3810Y4245D01*
X4015Y3640D02*
X4110Y3545D01*
X3823Y3613D02*
X3891Y3545D01*
X3583Y3613D02*
X3823Y3613D01*
X3480Y3510D02*
X3583Y3613D01*
X3802Y3563D02*
X3882Y3483D01*
X3733Y3563D02*
X3802Y3563D01*
X3680Y3510D02*
X3733Y3563D01*
X3480Y3495D02*
X3480Y3510D01*
X2915Y4605D02*
X3025Y4605D01*
X4210Y3545D02*
X4210Y3670D01*
X2935Y3155D02*
X3859Y3155D01*
X2925Y3130D02*
X3870Y3130D01*
X3720Y3180D02*
X3780Y3240D01*
X3300Y3500D02*
X3470Y3500D01*
X3345Y3600D02*
X3345Y3615D01*
X3302Y3556D02*
X3345Y3600D01*
X3227Y3556D02*
X3302Y3556D01*
X3170Y3500D02*
X3227Y3556D01*
X2906Y3500D02*
X3170Y3500D01*
X3205Y3655D02*
X3245Y3615D01*
X3065Y4545D02*
X3065Y4645D01*
X3025Y4605D02*
X3065Y4645D01*
X2880Y4605D02*
X2915Y4605D01*
X2830Y4555D02*
X2880Y4605D01*
X2830Y4355D02*
X2830Y4555D01*
X2830Y4355D02*
X2880Y4305D01*
X2880Y3748D02*
X2880Y4305D01*
X3891Y3545D02*
X4010Y3545D01*
X2855Y3760D02*
X2855Y4295D01*
X2805Y4345D02*
X2855Y4295D01*
X2895Y5245D02*
X3057Y5245D01*
X3138Y5164D01*
X3057Y5164D02*
X3114Y5107D01*
X3161Y5107D02*
X3218Y5164D01*
X3315Y5164D01*
X2914Y5164D02*
X3057Y5164D01*
X3114Y5107D02*
X3161Y5107D01*
X2895Y5145D02*
X2914Y5164D01*
X3057Y5420D02*
X3114Y5477D01*
X3161Y5477D02*
X3218Y5420D01*
X3315Y5420D01*
X2920Y5420D02*
X3057Y5420D01*
X3114Y5477D02*
X3161Y5477D01*
X2895Y5445D02*
X2920Y5420D01*
X2895Y5345D02*
X3063Y5345D01*
X3138Y5420D01*
X4025Y4101D02*
X4195Y4101D01*
X2933Y3727D02*
X2933Y3977D01*
X3000Y4045D01*
X3065Y4045D01*
X3780Y3240D02*
X3780Y3510D01*
X3882Y3255D02*
X3882Y3483D01*
X3895Y4745D02*
X4020Y4620D01*
X3665Y4745D02*
X3895Y4745D01*
X4065Y3695D02*
X4235Y3695D01*
X4040Y3720D02*
X4065Y3695D01*
X4010Y3720D02*
X4040Y3720D01*
X3860Y3870D02*
X4010Y3720D01*
X3840Y3970D02*
X3860Y3970D01*
X3665Y4145D02*
X3840Y3970D01*
X3590Y4370D02*
X3665Y4445D01*
X4125Y3905D02*
X4235Y3795D01*
X4125Y3905D02*
X4125Y4076D01*
X4015Y4076D02*
X4125Y4076D01*
X2915Y4505D02*
X3005Y4505D01*
X3065Y4445D01*
X2915Y4405D02*
X3005Y4405D01*
X3065Y4345D01*
X4020Y4620D02*
X4210Y4620D01*
X4280Y4550D01*
X4280Y3940D02*
X4280Y4550D01*
X4235Y3895D02*
X4280Y3940D01*
X2805Y4345D02*
X2805Y4595D01*
X2915Y4705D01*
X3500Y3355D02*
X3545Y3355D01*
X2981Y3740D02*
X3065Y3740D01*
X3760Y4367D02*
X4025Y4101D01*
X3760Y4367D02*
X3760Y4450D01*
X3665Y4545D02*
X3760Y4450D01*
X3843Y4364D02*
X3891Y4364D01*
X3955Y4428D01*
X3955Y4470D01*
X3980Y4495D01*
X4195Y4495D01*
X3180Y3655D02*
X3180Y3835D01*
X3145Y3615D02*
X3145Y3620D01*
X3180Y3655D01*
X3045Y3615D02*
X3070Y3615D01*
X3155Y3700D01*
X3155Y3825D01*
D12*
X3879Y3255D02*
D03*
X3485Y3255D02*
D03*
X3939Y3355D02*
D03*
X3545Y3355D02*
D03*
X3300Y3500D02*
D03*
X2906Y3500D02*
D03*
X4195Y4495D02*
D03*
X4195Y4101D02*
D03*
X2830Y3345D02*
D03*
D13*
X4210Y3545D02*
D03*
X3345Y3615D02*
D03*
X3480Y3510D02*
D03*
D14*
X4110Y3545D02*
D03*
X4010Y3545D02*
D03*
X3045Y3615D02*
D03*
X3245Y3615D02*
D03*
X3145Y3615D02*
D03*
X3780Y3510D02*
D03*
X3580Y3510D02*
D03*
X3680Y3510D02*
D03*
X2915Y4705D02*
D03*
X2915Y4505D02*
D03*
X2915Y4605D02*
D03*
X3860Y3970D02*
D03*
X3860Y4070D02*
D03*
X4040Y3820D02*
D03*
X4040Y3920D02*
D03*
X4235Y3795D02*
D03*
X4235Y3895D02*
D03*
X3065Y3740D02*
D03*
X3065Y3845D02*
D03*
X3065Y3945D02*
D03*
X3065Y4045D02*
D03*
X3065Y4145D02*
D03*
X3065Y4245D02*
D03*
X3065Y4745D02*
D03*
X3065Y4645D02*
D03*
X3065Y4545D02*
D03*
X3065Y4445D02*
D03*
X3065Y4345D02*
D03*
X3665Y4345D02*
D03*
X3665Y4445D02*
D03*
X3665Y4545D02*
D03*
X3665Y4645D02*
D03*
X3665Y4745D02*
D03*
X3665Y4245D02*
D03*
X3665Y4145D02*
D03*
X3665Y4045D02*
D03*
X3665Y3945D02*
D03*
X3665Y3845D02*
D03*
X3665Y3740D02*
D03*
X3665Y4845D02*
D03*
X2895Y5345D02*
D03*
X2895Y5245D02*
D03*
X2895Y5445D02*
D03*
D15*
X3843Y4364D02*
D03*
X3843Y4620D02*
D03*
X4020Y4364D02*
D03*
X4020Y4620D02*
D03*
X3138Y5164D02*
D03*
X3138Y5420D02*
D03*
X3315Y5164D02*
D03*
X3315Y5420D02*
D03*
D16*
X2915Y4405D02*
D03*
X3860Y3870D02*
D03*
X4040Y3720D02*
D03*
X4235Y3695D02*
D03*
X3065Y4845D02*
D03*
X2895Y5145D02*
D03*
D17*
X2570Y4760D02*
D03*
X2565Y3230D02*
D03*
X4195Y3225D02*
D03*
X4175Y4760D02*
D03*
X2625Y5305D02*
D03*
X4200Y5305D02*
D03*
D18*
X3224Y3345D02*
D03*
M02*
