M48
;Layer_Color=6321
;FILE_FORMAT=2:3
INCH,LZ
;TYPE=PLATED
T1F00S00C0.024
T2F00S00C0.030
T3F00S00C0.039
T4F00S00C0.040
T5F00S00C0.102
%
T01
X0283Y03345
X02906Y035
X033Y035
X03224Y03345
X03545Y03355
X03485Y03255
X03879Y03255
X03939Y03355
X04195Y04101
X04195Y04495
T02
X03045Y03615
X02915Y04405
X02915Y04505
X02915Y04605
X03145Y03615
X03245Y03615
X03345Y03615
X0348Y0351
X0358Y0351
X0368Y0351
X0378Y0351
X0401Y03545
X0411Y03545
X0421Y03545
X04235Y03695
X04235Y03795
X04235Y03895
X0404Y0392
X0404Y0382
X0404Y0372
X0386Y0387
X0386Y0397
X0386Y0407
X02915Y04705
X02895Y05145
X02895Y05245
X02895Y05345
X02895Y05445
T03
X03843Y04364
X0402Y04364
X0402Y0462
X03843Y0462
X03315Y05164
X03138Y05164
X03138Y0542
X03315Y0542
T04
X03065Y0374
X03065Y03845
X03065Y03945
X03065Y04045
X03065Y04145
X03065Y04245
X03065Y04345
X03065Y04445
X03065Y04545
X03065Y04645
X03665Y04645
X03665Y04545
X03665Y04445
X03665Y04345
X03665Y04245
X03665Y04145
X03665Y04045
X03665Y03945
X03665Y03845
X03665Y0374
X03665Y04745
X03665Y04845
X03065Y04845
X03065Y04745
T05
X02565Y0323
X04195Y03225
X04175Y0476
X042Y05305
X02625Y05305
X0257Y0476
M30
